<?xml version="1.0" encoding="UTF-8" standalone="no"?>
<!-- Created with Inkscape (http://www.inkscape.org/) -->

<svg
   xmlns:dc="http://purl.org/dc/elements/1.1/"
   xmlns:cc="http://creativecommons.org/ns#"
   xmlns:rdf="http://www.w3.org/1999/02/22-rdf-syntax-ns#"
   xmlns:svg="http://www.w3.org/2000/svg"
   xmlns="http://www.w3.org/2000/svg"
   xmlns:sodipodi="http://sodipodi.sourceforge.net/DTD/sodipodi-0.dtd"
   xmlns:inkscape="http://www.inkscape.org/namespaces/inkscape"
   width="210mm"
   height="297mm"
   viewBox="0 0 744.09448819 1052.3622047"
   id="svg2"
   version="1.1"
   inkscape:version="0.91 r13725"
   sodipodi:docname="tweetrospective.svg"
   inkscape:export-filename="/home/ham/dev/onehamarmy/assets/img/uploads/tweetrospective.png"
   inkscape:export-xdpi="120.92795"
   inkscape:export-ydpi="120.92795">
  <defs
     id="defs4" />
  <sodipodi:namedview
     id="base"
     pagecolor="#ffffff"
     bordercolor="#666666"
     borderopacity="1.0"
     inkscape:pageopacity="0.0"
     inkscape:pageshadow="2"
     inkscape:zoom="2.8"
     inkscape:cx="543.9115"
     inkscape:cy="56.946517"
     inkscape:document-units="px"
     inkscape:current-layer="layer1"
     showgrid="false"
     showguides="true"
     inkscape:guide-bbox="true"
     inkscape:window-width="1920"
     inkscape:window-height="1013"
     inkscape:window-x="0"
     inkscape:window-y="27"
     inkscape:window-maximized="1" />
  <metadata
     id="metadata7">
    <rdf:RDF>
      <cc:Work
         rdf:about="">
        <dc:format>image/svg+xml</dc:format>
        <dc:type
           rdf:resource="http://purl.org/dc/dcmitype/StillImage" />
        <dc:title></dc:title>
      </cc:Work>
    </rdf:RDF>
  </metadata>
  <g
     inkscape:label="Layer 1"
     inkscape:groupmode="layer"
     id="layer1">
    <path
       sodipodi:type="star"
       style="fill:#20201e;fill-opacity:1;stroke:none;stroke-width:4.15799999;stroke-miterlimit:4;stroke-dasharray:none;stroke-opacity:1"
       id="path3336"
       sodipodi:sides="5"
       sodipodi:cx="56.571426"
       sodipodi:cy="58.68634"
       sodipodi:r1="35.043877"
       sodipodi:r2="17.521938"
       sodipodi:arg1="-1.5707963"
       sodipodi:arg2="-0.9424778"
       inkscape:flatsided="false"
       inkscape:rounded="0"
       inkscape:randomized="0"
       d="M 56.571427,23.642464 66.870563,44.510794 89.900134,47.857188 73.23578,64.100917 77.1697,87.037433 56.571426,76.208279 35.973152,87.037432 39.907073,64.100917 23.242719,47.857186 46.272289,44.510794 Z"
       inkscape:transform-center-y="-3.3463931" />
    <text
       style="font-style:normal;font-variant:normal;font-weight:bold;font-stretch:normal;font-size:10.99450016px;line-height:125%;font-family:'Liberation Sans';-inkscape-font-specification:'Liberation Sans, Bold';text-align:start;writing-mode:lr-tb;text-anchor:start;fill:#000000"
       x="388.94427"
       y="1024.1373"
       font-size="5.0"
       font-weight="bold"
       id="text3425"
       sodipodi:linespacing="125%">Retweet Icon created by Simple Icons from the Noun Project</text>
    <text
       style="font-weight:bold;font-size:10.99451065px;font-family:'Helvetica Neue', Helvetica, Arial-Unicode, Arial, Sans-serif;fill:#000000"
       x="158.94427"
       y="1027.1316"
       font-size="5.0"
       font-weight="bold"
       id="text3427" />
    <path
       inkscape:transform-center-y="-3.3463931"
       d="m 136.57143,23.642464 10.29913,20.86833 23.02957,3.346394 -16.66435,16.243729 3.93392,22.936516 -20.59827,-10.829154 -20.59828,10.829153 3.93392,-22.936515 -16.66435,-16.243731 23.02957,-3.346392 z"
       inkscape:randomized="0"
       inkscape:rounded="0"
       inkscape:flatsided="false"
       sodipodi:arg2="-0.9424778"
       sodipodi:arg1="-1.5707963"
       sodipodi:r2="17.521938"
       sodipodi:r1="35.043877"
       sodipodi:cy="58.68634"
       sodipodi:cx="136.57143"
       sodipodi:sides="5"
       id="path3443"
       style="fill:#20201e;fill-opacity:1;stroke:none;stroke-width:4.15799999;stroke-miterlimit:4;stroke-dasharray:none;stroke-opacity:1"
       sodipodi:type="star" />
    <path
       sodipodi:type="star"
       style="fill:#20201e;fill-opacity:1;stroke:none;stroke-width:4.15799999;stroke-miterlimit:4;stroke-dasharray:none;stroke-opacity:1"
       id="path3445"
       sodipodi:sides="5"
       sodipodi:cx="216.57143"
       sodipodi:cy="58.68634"
       sodipodi:r1="35.043877"
       sodipodi:r2="17.521938"
       sodipodi:arg1="-1.5707963"
       sodipodi:arg2="-0.9424778"
       inkscape:flatsided="false"
       inkscape:rounded="0"
       inkscape:randomized="0"
       d="m 216.57143,23.642464 10.29913,20.86833 23.02957,3.346394 -16.66435,16.243729 3.93392,22.936516 -20.59827,-10.829154 -20.59828,10.829153 3.93392,-22.936515 -16.66435,-16.243731 23.02957,-3.346392 z"
       inkscape:transform-center-y="-3.3463931" />
    <path
       inkscape:transform-center-y="-3.3463931"
       d="m 296.57144,23.642464 10.29914,20.86833 23.02957,3.346394 -16.66435,16.243729 3.93391,22.936516 -20.59827,-10.829154 -20.59827,10.829153 3.93392,-22.936515 -16.66436,-16.243731 23.02957,-3.346392 z"
       inkscape:randomized="0"
       inkscape:rounded="0"
       inkscape:flatsided="false"
       sodipodi:arg2="-0.9424778"
       sodipodi:arg1="-1.5707963"
       sodipodi:r2="17.521938"
       sodipodi:r1="35.043877"
       sodipodi:cy="58.68634"
       sodipodi:cx="296.57144"
       sodipodi:sides="5"
       id="path3447"
       style="fill:#20201e;fill-opacity:1;stroke:none;stroke-width:4.15799999;stroke-miterlimit:4;stroke-dasharray:none;stroke-opacity:1"
       sodipodi:type="star" />
    <path
       sodipodi:type="star"
       style="fill:#20201e;fill-opacity:1;stroke:none;stroke-width:4.15799999;stroke-miterlimit:4;stroke-dasharray:none;stroke-opacity:1"
       id="path3449"
       sodipodi:sides="5"
       sodipodi:cx="376.57144"
       sodipodi:cy="58.68634"
       sodipodi:r1="35.043877"
       sodipodi:r2="17.521938"
       sodipodi:arg1="-1.5707963"
       sodipodi:arg2="-0.9424778"
       inkscape:flatsided="false"
       inkscape:rounded="0"
       inkscape:randomized="0"
       d="m 376.57144,23.642464 10.29914,20.86833 23.02957,3.346394 -16.66435,16.243729 3.93391,22.936516 -20.59827,-10.829154 -20.59827,10.829153 3.93392,-22.936515 -16.66436,-16.243731 23.02957,-3.346392 z"
       inkscape:transform-center-y="-3.3463931" />
    <path
       inkscape:transform-center-y="-3.3463931"
       d="m 456.57144,23.642464 10.29914,20.86833 23.02957,3.346394 -16.66435,16.243729 3.93391,22.936516 -20.59827,-10.829154 -20.59827,10.829153 3.93392,-22.936515 -16.66436,-16.243731 23.02957,-3.346392 z"
       inkscape:randomized="0"
       inkscape:rounded="0"
       inkscape:flatsided="false"
       sodipodi:arg2="-0.9424778"
       sodipodi:arg1="-1.5707963"
       sodipodi:r2="17.521938"
       sodipodi:r1="35.043877"
       sodipodi:cy="58.68634"
       sodipodi:cx="456.57144"
       sodipodi:sides="5"
       id="path3451"
       style="fill:#20201e;fill-opacity:1;stroke:none;stroke-width:4.15799999;stroke-miterlimit:4;stroke-dasharray:none;stroke-opacity:1"
       sodipodi:type="star" />
    <path
       sodipodi:type="star"
       style="fill:#20201e;fill-opacity:1;stroke:none;stroke-width:4.15799999;stroke-miterlimit:4;stroke-dasharray:none;stroke-opacity:1"
       id="path3453"
       sodipodi:sides="5"
       sodipodi:cx="536.57141"
       sodipodi:cy="58.68634"
       sodipodi:r1="35.043877"
       sodipodi:r2="17.521938"
       sodipodi:arg1="-1.5707963"
       sodipodi:arg2="-0.9424778"
       inkscape:flatsided="false"
       inkscape:rounded="0"
       inkscape:randomized="0"
       d="m 536.57141,23.642464 10.29914,20.86833 23.02957,3.346394 -16.66436,16.243729 3.93392,22.936516 -20.59827,-10.829154 -20.59827,10.829153 3.93392,-22.936515 -16.66436,-16.243731 23.02957,-3.346392 z"
       inkscape:transform-center-y="-3.3463931" />
    <path
       inkscape:transform-center-y="-3.3463931"
       d="m 616.57141,23.642464 10.29914,20.86833 23.02957,3.346394 -16.66436,16.243729 3.93392,22.936516 -20.59827,-10.829154 -20.59827,10.829153 3.93392,-22.936515 -16.66436,-16.243731 23.02957,-3.346392 z"
       inkscape:randomized="0"
       inkscape:rounded="0"
       inkscape:flatsided="false"
       sodipodi:arg2="-0.9424778"
       sodipodi:arg1="-1.5707963"
       sodipodi:r2="17.521938"
       sodipodi:r1="35.043877"
       sodipodi:cy="58.68634"
       sodipodi:cx="616.57141"
       sodipodi:sides="5"
       id="path3455"
       style="fill:#20201e;fill-opacity:1;stroke:none;stroke-width:4.15799999;stroke-miterlimit:4;stroke-dasharray:none;stroke-opacity:1"
       sodipodi:type="star" />
    <path
       sodipodi:type="star"
       style="fill:#20201e;fill-opacity:1;stroke:none;stroke-width:4.15799999;stroke-miterlimit:4;stroke-dasharray:none;stroke-opacity:1"
       id="path3457"
       sodipodi:sides="5"
       sodipodi:cx="696.57141"
       sodipodi:cy="58.68634"
       sodipodi:r1="35.043877"
       sodipodi:r2="17.521938"
       sodipodi:arg1="-1.5707963"
       sodipodi:arg2="-0.9424778"
       inkscape:flatsided="false"
       inkscape:rounded="0"
       inkscape:randomized="0"
       d="m 696.57141,23.642464 10.29914,20.86833 23.02957,3.346394 -16.66436,16.243729 3.93392,22.936516 -20.59827,-10.829154 -20.59827,10.829153 3.93392,-22.936515 -16.66436,-16.243731 23.02957,-3.346392 z"
       inkscape:transform-center-y="-3.3463931" />
    <path
       inkscape:transform-center-y="-3.3463931"
       d="m 56.571427,103.64246 10.299136,20.86833 23.029571,3.3464 -16.664354,16.24373 3.93392,22.93651 -20.598274,-10.82915 -20.598274,10.82915 3.933921,-22.93651 -16.664354,-16.24373 23.02957,-3.3464 z"
       inkscape:randomized="0"
       inkscape:rounded="0"
       inkscape:flatsided="false"
       sodipodi:arg2="-0.9424778"
       sodipodi:arg1="-1.5707963"
       sodipodi:r2="17.521938"
       sodipodi:r1="35.043877"
       sodipodi:cy="138.68634"
       sodipodi:cx="56.571426"
       sodipodi:sides="5"
       id="path3459"
       style="fill:#20201e;fill-opacity:1;stroke:none;stroke-width:4.15799999;stroke-miterlimit:4;stroke-dasharray:none;stroke-opacity:1"
       sodipodi:type="star" />
    <path
       sodipodi:type="star"
       style="fill:#20201e;fill-opacity:1;stroke:none;stroke-width:4.15799999;stroke-miterlimit:4;stroke-dasharray:none;stroke-opacity:1"
       id="path3461"
       sodipodi:sides="5"
       sodipodi:cx="136.57143"
       sodipodi:cy="138.68634"
       sodipodi:r1="35.043877"
       sodipodi:r2="17.521938"
       sodipodi:arg1="-1.5707963"
       sodipodi:arg2="-0.9424778"
       inkscape:flatsided="false"
       inkscape:rounded="0"
       inkscape:randomized="0"
       d="m 136.57143,103.64246 10.29913,20.86833 23.02957,3.3464 -16.66435,16.24373 3.93392,22.93651 -20.59827,-10.82915 -20.59828,10.82915 3.93392,-22.93651 -16.66435,-16.24373 23.02957,-3.3464 z"
       inkscape:transform-center-y="-3.3463931" />
    <path
       inkscape:transform-center-y="-3.3463931"
       d="m 216.57143,103.64246 10.29913,20.86833 23.02957,3.3464 -16.66435,16.24373 3.93392,22.93651 -20.59827,-10.82915 -20.59828,10.82915 3.93392,-22.93651 -16.66435,-16.24373 23.02957,-3.3464 z"
       inkscape:randomized="0"
       inkscape:rounded="0"
       inkscape:flatsided="false"
       sodipodi:arg2="-0.9424778"
       sodipodi:arg1="-1.5707963"
       sodipodi:r2="17.521938"
       sodipodi:r1="35.043877"
       sodipodi:cy="138.68634"
       sodipodi:cx="216.57143"
       sodipodi:sides="5"
       id="path3463"
       style="fill:#20201e;fill-opacity:1;stroke:none;stroke-width:4.15799999;stroke-miterlimit:4;stroke-dasharray:none;stroke-opacity:1"
       sodipodi:type="star" />
    <path
       sodipodi:type="star"
       style="fill:#20201e;fill-opacity:1;stroke:none;stroke-width:4.15799999;stroke-miterlimit:4;stroke-dasharray:none;stroke-opacity:1"
       id="path3465"
       sodipodi:sides="5"
       sodipodi:cx="296.57144"
       sodipodi:cy="138.68634"
       sodipodi:r1="35.043877"
       sodipodi:r2="17.521938"
       sodipodi:arg1="-1.5707963"
       sodipodi:arg2="-0.9424778"
       inkscape:flatsided="false"
       inkscape:rounded="0"
       inkscape:randomized="0"
       d="m 296.57144,103.64246 10.29914,20.86833 23.02957,3.3464 -16.66435,16.24373 3.93391,22.93651 -20.59827,-10.82915 -20.59827,10.82915 3.93392,-22.93651 -16.66436,-16.24373 23.02957,-3.3464 z"
       inkscape:transform-center-y="-3.3463931" />
    <path
       inkscape:transform-center-y="-3.3463931"
       d="m 376.57144,103.64246 10.29914,20.86833 23.02957,3.3464 -16.66435,16.24373 3.93391,22.93651 -20.59827,-10.82915 -20.59827,10.82915 3.93392,-22.93651 -16.66436,-16.24373 23.02957,-3.3464 z"
       inkscape:randomized="0"
       inkscape:rounded="0"
       inkscape:flatsided="false"
       sodipodi:arg2="-0.9424778"
       sodipodi:arg1="-1.5707963"
       sodipodi:r2="17.521938"
       sodipodi:r1="35.043877"
       sodipodi:cy="138.68634"
       sodipodi:cx="376.57144"
       sodipodi:sides="5"
       id="path3467"
       style="fill:#20201e;fill-opacity:1;stroke:none;stroke-width:4.15799999;stroke-miterlimit:4;stroke-dasharray:none;stroke-opacity:1"
       sodipodi:type="star" />
    <path
       sodipodi:type="star"
       style="fill:#20201e;fill-opacity:1;stroke:none;stroke-width:4.15799999;stroke-miterlimit:4;stroke-dasharray:none;stroke-opacity:1"
       id="path3469"
       sodipodi:sides="5"
       sodipodi:cx="456.57144"
       sodipodi:cy="138.68634"
       sodipodi:r1="35.043877"
       sodipodi:r2="17.521938"
       sodipodi:arg1="-1.5707963"
       sodipodi:arg2="-0.9424778"
       inkscape:flatsided="false"
       inkscape:rounded="0"
       inkscape:randomized="0"
       d="m 456.57144,103.64246 10.29914,20.86833 23.02957,3.3464 -16.66435,16.24373 3.93391,22.93651 -20.59827,-10.82915 -20.59827,10.82915 3.93392,-22.93651 -16.66436,-16.24373 23.02957,-3.3464 z"
       inkscape:transform-center-y="-3.3463931" />
    <path
       inkscape:transform-center-y="-3.3463931"
       d="m 536.57141,103.64246 10.29914,20.86833 23.02957,3.3464 -16.66436,16.24373 3.93392,22.93651 -20.59827,-10.82915 -20.59827,10.82915 3.93392,-22.93651 -16.66436,-16.24373 23.02957,-3.3464 z"
       inkscape:randomized="0"
       inkscape:rounded="0"
       inkscape:flatsided="false"
       sodipodi:arg2="-0.9424778"
       sodipodi:arg1="-1.5707963"
       sodipodi:r2="17.521938"
       sodipodi:r1="35.043877"
       sodipodi:cy="138.68634"
       sodipodi:cx="536.57141"
       sodipodi:sides="5"
       id="path3471"
       style="fill:#20201e;fill-opacity:1;stroke:none;stroke-width:4.15799999;stroke-miterlimit:4;stroke-dasharray:none;stroke-opacity:1"
       sodipodi:type="star" />
    <path
       sodipodi:type="star"
       style="fill:#20201e;fill-opacity:1;stroke:none;stroke-width:4.15799999;stroke-miterlimit:4;stroke-dasharray:none;stroke-opacity:1"
       id="path3473"
       sodipodi:sides="5"
       sodipodi:cx="616.57141"
       sodipodi:cy="138.68634"
       sodipodi:r1="35.043877"
       sodipodi:r2="17.521938"
       sodipodi:arg1="-1.5707963"
       sodipodi:arg2="-0.9424778"
       inkscape:flatsided="false"
       inkscape:rounded="0"
       inkscape:randomized="0"
       d="m 616.57141,103.64246 10.29914,20.86833 23.02957,3.3464 -16.66436,16.24373 3.93392,22.93651 -20.59827,-10.82915 -20.59827,10.82915 3.93392,-22.93651 -16.66436,-16.24373 23.02957,-3.3464 z"
       inkscape:transform-center-y="-3.3463931" />
    <path
       inkscape:transform-center-y="-3.3463931"
       d="m 696.57141,103.64246 10.29914,20.86833 23.02957,3.3464 -16.66436,16.24373 3.93392,22.93651 -20.59827,-10.82915 -20.59827,10.82915 3.93392,-22.93651 -16.66436,-16.24373 23.02957,-3.3464 z"
       inkscape:randomized="0"
       inkscape:rounded="0"
       inkscape:flatsided="false"
       sodipodi:arg2="-0.9424778"
       sodipodi:arg1="-1.5707963"
       sodipodi:r2="17.521938"
       sodipodi:r1="35.043877"
       sodipodi:cy="138.68634"
       sodipodi:cx="696.57141"
       sodipodi:sides="5"
       id="path3475"
       style="fill:#20201e;fill-opacity:1;stroke:none;stroke-width:4.15799999;stroke-miterlimit:4;stroke-dasharray:none;stroke-opacity:1"
       sodipodi:type="star" />
    <path
       sodipodi:type="star"
       style="fill:#20201e;fill-opacity:1;stroke:none;stroke-width:4.15799999;stroke-miterlimit:4;stroke-dasharray:none;stroke-opacity:1"
       id="path3477"
       sodipodi:sides="5"
       sodipodi:cx="56.571426"
       sodipodi:cy="218.68634"
       sodipodi:r1="35.043877"
       sodipodi:r2="17.521938"
       sodipodi:arg1="-1.5707963"
       sodipodi:arg2="-0.9424778"
       inkscape:flatsided="false"
       inkscape:rounded="0"
       inkscape:randomized="0"
       d="m 56.571427,183.64246 10.299136,20.86833 23.029571,3.3464 -16.664354,16.24373 3.93392,22.93651 -20.598274,-10.82915 -20.598274,10.82915 3.933921,-22.93651 -16.664354,-16.24373 23.02957,-3.3464 z"
       inkscape:transform-center-y="-3.3463931" />
    <path
       inkscape:transform-center-y="-3.3463931"
       d="m 136.57143,183.64246 10.29913,20.86833 23.02957,3.3464 -16.66435,16.24373 3.93392,22.93651 -20.59827,-10.82915 -20.59828,10.82915 3.93392,-22.93651 -16.66435,-16.24373 23.02957,-3.3464 z"
       inkscape:randomized="0"
       inkscape:rounded="0"
       inkscape:flatsided="false"
       sodipodi:arg2="-0.9424778"
       sodipodi:arg1="-1.5707963"
       sodipodi:r2="17.521938"
       sodipodi:r1="35.043877"
       sodipodi:cy="218.68634"
       sodipodi:cx="136.57143"
       sodipodi:sides="5"
       id="path3479"
       style="fill:#20201e;fill-opacity:1;stroke:none;stroke-width:4.15799999;stroke-miterlimit:4;stroke-dasharray:none;stroke-opacity:1"
       sodipodi:type="star" />
    <path
       sodipodi:type="star"
       style="fill:#20201e;fill-opacity:1;stroke:none;stroke-width:4.15799999;stroke-miterlimit:4;stroke-dasharray:none;stroke-opacity:1"
       id="path3481"
       sodipodi:sides="5"
       sodipodi:cx="216.57143"
       sodipodi:cy="218.68634"
       sodipodi:r1="35.043877"
       sodipodi:r2="17.521938"
       sodipodi:arg1="-1.5707963"
       sodipodi:arg2="-0.9424778"
       inkscape:flatsided="false"
       inkscape:rounded="0"
       inkscape:randomized="0"
       d="m 216.57143,183.64246 10.29913,20.86833 23.02957,3.3464 -16.66435,16.24373 3.93392,22.93651 -20.59827,-10.82915 -20.59828,10.82915 3.93392,-22.93651 -16.66435,-16.24373 23.02957,-3.3464 z"
       inkscape:transform-center-y="-3.3463931" />
    <path
       inkscape:transform-center-y="-3.3463931"
       d="m 296.57144,183.64246 10.29914,20.86833 23.02957,3.3464 -16.66435,16.24373 3.93391,22.93651 -20.59827,-10.82915 -20.59827,10.82915 3.93392,-22.93651 -16.66436,-16.24373 23.02957,-3.3464 z"
       inkscape:randomized="0"
       inkscape:rounded="0"
       inkscape:flatsided="false"
       sodipodi:arg2="-0.9424778"
       sodipodi:arg1="-1.5707963"
       sodipodi:r2="17.521938"
       sodipodi:r1="35.043877"
       sodipodi:cy="218.68634"
       sodipodi:cx="296.57144"
       sodipodi:sides="5"
       id="path3483"
       style="fill:#20201e;fill-opacity:1;stroke:none;stroke-width:4.15799999;stroke-miterlimit:4;stroke-dasharray:none;stroke-opacity:1"
       sodipodi:type="star" />
    <path
       sodipodi:type="star"
       style="fill:#20201e;fill-opacity:1;stroke:none;stroke-width:4.15799999;stroke-miterlimit:4;stroke-dasharray:none;stroke-opacity:1"
       id="path3485"
       sodipodi:sides="5"
       sodipodi:cx="376.57144"
       sodipodi:cy="218.68634"
       sodipodi:r1="35.043877"
       sodipodi:r2="17.521938"
       sodipodi:arg1="-1.5707963"
       sodipodi:arg2="-0.9424778"
       inkscape:flatsided="false"
       inkscape:rounded="0"
       inkscape:randomized="0"
       d="m 376.57144,183.64246 10.29914,20.86833 23.02957,3.3464 -16.66435,16.24373 3.93391,22.93651 -20.59827,-10.82915 -20.59827,10.82915 3.93392,-22.93651 -16.66436,-16.24373 23.02957,-3.3464 z"
       inkscape:transform-center-y="-3.3463931" />
    <path
       inkscape:transform-center-y="-3.3463931"
       d="m 456.57144,183.64246 10.29914,20.86833 23.02957,3.3464 -16.66435,16.24373 3.93391,22.93651 -20.59827,-10.82915 -20.59827,10.82915 3.93392,-22.93651 -16.66436,-16.24373 23.02957,-3.3464 z"
       inkscape:randomized="0"
       inkscape:rounded="0"
       inkscape:flatsided="false"
       sodipodi:arg2="-0.9424778"
       sodipodi:arg1="-1.5707963"
       sodipodi:r2="17.521938"
       sodipodi:r1="35.043877"
       sodipodi:cy="218.68634"
       sodipodi:cx="456.57144"
       sodipodi:sides="5"
       id="path3487"
       style="fill:#20201e;fill-opacity:1;stroke:none;stroke-width:4.15799999;stroke-miterlimit:4;stroke-dasharray:none;stroke-opacity:1"
       sodipodi:type="star" />
    <path
       sodipodi:type="star"
       style="fill:#20201e;fill-opacity:1;stroke:none;stroke-width:4.15799999;stroke-miterlimit:4;stroke-dasharray:none;stroke-opacity:1"
       id="path3489"
       sodipodi:sides="5"
       sodipodi:cx="536.57141"
       sodipodi:cy="218.68634"
       sodipodi:r1="35.043877"
       sodipodi:r2="17.521938"
       sodipodi:arg1="-1.5707963"
       sodipodi:arg2="-0.9424778"
       inkscape:flatsided="false"
       inkscape:rounded="0"
       inkscape:randomized="0"
       d="m 536.57141,183.64246 10.29914,20.86833 23.02957,3.3464 -16.66436,16.24373 3.93392,22.93651 -20.59827,-10.82915 -20.59827,10.82915 3.93392,-22.93651 -16.66436,-16.24373 23.02957,-3.3464 z"
       inkscape:transform-center-y="-3.3463931" />
    <path
       inkscape:transform-center-y="-3.3463931"
       d="m 616.57141,183.64246 10.29914,20.86833 23.02957,3.3464 -16.66436,16.24373 3.93392,22.93651 -20.59827,-10.82915 -20.59827,10.82915 3.93392,-22.93651 -16.66436,-16.24373 23.02957,-3.3464 z"
       inkscape:randomized="0"
       inkscape:rounded="0"
       inkscape:flatsided="false"
       sodipodi:arg2="-0.9424778"
       sodipodi:arg1="-1.5707963"
       sodipodi:r2="17.521938"
       sodipodi:r1="35.043877"
       sodipodi:cy="218.68634"
       sodipodi:cx="616.57141"
       sodipodi:sides="5"
       id="path3491"
       style="fill:#20201e;fill-opacity:1;stroke:none;stroke-width:4.15799999;stroke-miterlimit:4;stroke-dasharray:none;stroke-opacity:1"
       sodipodi:type="star" />
    <path
       sodipodi:type="star"
       style="fill:#20201e;fill-opacity:1;stroke:none;stroke-width:4.15799999;stroke-miterlimit:4;stroke-dasharray:none;stroke-opacity:1"
       id="path3493"
       sodipodi:sides="5"
       sodipodi:cx="696.57141"
       sodipodi:cy="218.68634"
       sodipodi:r1="35.043877"
       sodipodi:r2="17.521938"
       sodipodi:arg1="-1.5707963"
       sodipodi:arg2="-0.9424778"
       inkscape:flatsided="false"
       inkscape:rounded="0"
       inkscape:randomized="0"
       d="m 696.57141,183.64246 10.29914,20.86833 23.02957,3.3464 -16.66436,16.24373 3.93392,22.93651 -20.59827,-10.82915 -20.59827,10.82915 3.93392,-22.93651 -16.66436,-16.24373 23.02957,-3.3464 z"
       inkscape:transform-center-y="-3.3463931" />
    <path
       inkscape:transform-center-y="-3.3463931"
       d="m 56.571427,263.64246 10.299136,20.86833 23.029571,3.3464 -16.664354,16.24373 3.93392,22.93651 -20.598274,-10.82915 -20.598274,10.82915 3.933921,-22.93651 -16.664354,-16.24373 23.02957,-3.3464 z"
       inkscape:randomized="0"
       inkscape:rounded="0"
       inkscape:flatsided="false"
       sodipodi:arg2="-0.9424778"
       sodipodi:arg1="-1.5707963"
       sodipodi:r2="17.521938"
       sodipodi:r1="35.043877"
       sodipodi:cy="298.68634"
       sodipodi:cx="56.571426"
       sodipodi:sides="5"
       id="path3495"
       style="fill:#20201e;fill-opacity:1;stroke:none;stroke-width:4.15799999;stroke-miterlimit:4;stroke-dasharray:none;stroke-opacity:1"
       sodipodi:type="star" />
    <path
       sodipodi:type="star"
       style="fill:#20201e;fill-opacity:1;stroke:none;stroke-width:4.15799999;stroke-miterlimit:4;stroke-dasharray:none;stroke-opacity:1"
       id="path3497"
       sodipodi:sides="5"
       sodipodi:cx="136.57143"
       sodipodi:cy="298.68634"
       sodipodi:r1="35.043877"
       sodipodi:r2="17.521938"
       sodipodi:arg1="-1.5707963"
       sodipodi:arg2="-0.9424778"
       inkscape:flatsided="false"
       inkscape:rounded="0"
       inkscape:randomized="0"
       d="m 136.57143,263.64246 10.29913,20.86833 23.02957,3.3464 -16.66435,16.24373 3.93392,22.93651 -20.59827,-10.82915 -20.59828,10.82915 3.93392,-22.93651 -16.66435,-16.24373 23.02957,-3.3464 z"
       inkscape:transform-center-y="-3.3463931" />
    <path
       inkscape:transform-center-y="-3.3463931"
       d="m 216.57143,263.64246 10.29913,20.86833 23.02957,3.3464 -16.66435,16.24373 3.93392,22.93651 -20.59827,-10.82915 -20.59828,10.82915 3.93392,-22.93651 -16.66435,-16.24373 23.02957,-3.3464 z"
       inkscape:randomized="0"
       inkscape:rounded="0"
       inkscape:flatsided="false"
       sodipodi:arg2="-0.9424778"
       sodipodi:arg1="-1.5707963"
       sodipodi:r2="17.521938"
       sodipodi:r1="35.043877"
       sodipodi:cy="298.68634"
       sodipodi:cx="216.57143"
       sodipodi:sides="5"
       id="path3499"
       style="fill:#20201e;fill-opacity:1;stroke:none;stroke-width:4.15799999;stroke-miterlimit:4;stroke-dasharray:none;stroke-opacity:1"
       sodipodi:type="star" />
    <path
       sodipodi:type="star"
       style="fill:#20201e;fill-opacity:1;stroke:none;stroke-width:4.15799999;stroke-miterlimit:4;stroke-dasharray:none;stroke-opacity:1"
       id="path3501"
       sodipodi:sides="5"
       sodipodi:cx="296.57144"
       sodipodi:cy="298.68634"
       sodipodi:r1="35.043877"
       sodipodi:r2="17.521938"
       sodipodi:arg1="-1.5707963"
       sodipodi:arg2="-0.9424778"
       inkscape:flatsided="false"
       inkscape:rounded="0"
       inkscape:randomized="0"
       d="m 296.57144,263.64246 10.29914,20.86833 23.02957,3.3464 -16.66435,16.24373 3.93391,22.93651 -20.59827,-10.82915 -20.59827,10.82915 3.93392,-22.93651 -16.66436,-16.24373 23.02957,-3.3464 z"
       inkscape:transform-center-y="-3.3463931" />
    <path
       inkscape:transform-center-y="-3.3463931"
       d="m 376.57144,263.64246 10.29914,20.86833 23.02957,3.3464 -16.66435,16.24373 3.93391,22.93651 -20.59827,-10.82915 -20.59827,10.82915 3.93392,-22.93651 -16.66436,-16.24373 23.02957,-3.3464 z"
       inkscape:randomized="0"
       inkscape:rounded="0"
       inkscape:flatsided="false"
       sodipodi:arg2="-0.9424778"
       sodipodi:arg1="-1.5707963"
       sodipodi:r2="17.521938"
       sodipodi:r1="35.043877"
       sodipodi:cy="298.68634"
       sodipodi:cx="376.57144"
       sodipodi:sides="5"
       id="path3503"
       style="fill:#20201e;fill-opacity:1;stroke:none;stroke-width:4.15799999;stroke-miterlimit:4;stroke-dasharray:none;stroke-opacity:1"
       sodipodi:type="star" />
    <path
       sodipodi:type="star"
       style="fill:#20201e;fill-opacity:1;stroke:none;stroke-width:4.15799999;stroke-miterlimit:4;stroke-dasharray:none;stroke-opacity:1"
       id="path3505"
       sodipodi:sides="5"
       sodipodi:cx="456.57144"
       sodipodi:cy="298.68634"
       sodipodi:r1="35.043877"
       sodipodi:r2="17.521938"
       sodipodi:arg1="-1.5707963"
       sodipodi:arg2="-0.9424778"
       inkscape:flatsided="false"
       inkscape:rounded="0"
       inkscape:randomized="0"
       d="m 456.57144,263.64246 10.29914,20.86833 23.02957,3.3464 -16.66435,16.24373 3.93391,22.93651 -20.59827,-10.82915 -20.59827,10.82915 3.93392,-22.93651 -16.66436,-16.24373 23.02957,-3.3464 z"
       inkscape:transform-center-y="-3.3463931" />
    <path
       inkscape:transform-center-y="-3.3463931"
       d="m 536.57141,263.64246 10.29914,20.86833 23.02957,3.3464 -16.66436,16.24373 3.93392,22.93651 -20.59827,-10.82915 -20.59827,10.82915 3.93392,-22.93651 -16.66436,-16.24373 23.02957,-3.3464 z"
       inkscape:randomized="0"
       inkscape:rounded="0"
       inkscape:flatsided="false"
       sodipodi:arg2="-0.9424778"
       sodipodi:arg1="-1.5707963"
       sodipodi:r2="17.521938"
       sodipodi:r1="35.043877"
       sodipodi:cy="298.68634"
       sodipodi:cx="536.57141"
       sodipodi:sides="5"
       id="path3507"
       style="fill:#20201e;fill-opacity:1;stroke:none;stroke-width:4.15799999;stroke-miterlimit:4;stroke-dasharray:none;stroke-opacity:1"
       sodipodi:type="star" />
    <path
       sodipodi:type="star"
       style="fill:#20201e;fill-opacity:1;stroke:none;stroke-width:4.15799999;stroke-miterlimit:4;stroke-dasharray:none;stroke-opacity:1"
       id="path3509"
       sodipodi:sides="5"
       sodipodi:cx="616.57141"
       sodipodi:cy="298.68634"
       sodipodi:r1="35.043877"
       sodipodi:r2="17.521938"
       sodipodi:arg1="-1.5707963"
       sodipodi:arg2="-0.9424778"
       inkscape:flatsided="false"
       inkscape:rounded="0"
       inkscape:randomized="0"
       d="m 616.57141,263.64246 10.29914,20.86833 23.02957,3.3464 -16.66436,16.24373 3.93392,22.93651 -20.59827,-10.82915 -20.59827,10.82915 3.93392,-22.93651 -16.66436,-16.24373 23.02957,-3.3464 z"
       inkscape:transform-center-y="-3.3463931" />
    <path
       inkscape:transform-center-y="-3.3463931"
       d="m 696.57141,263.64246 10.29914,20.86833 23.02957,3.3464 -16.66436,16.24373 3.93392,22.93651 -20.59827,-10.82915 -20.59827,10.82915 3.93392,-22.93651 -16.66436,-16.24373 23.02957,-3.3464 z"
       inkscape:randomized="0"
       inkscape:rounded="0"
       inkscape:flatsided="false"
       sodipodi:arg2="-0.9424778"
       sodipodi:arg1="-1.5707963"
       sodipodi:r2="17.521938"
       sodipodi:r1="35.043877"
       sodipodi:cy="298.68634"
       sodipodi:cx="696.57141"
       sodipodi:sides="5"
       id="path3511"
       style="fill:#20201e;fill-opacity:1;stroke:none;stroke-width:4.15799999;stroke-miterlimit:4;stroke-dasharray:none;stroke-opacity:1"
       sodipodi:type="star" />
    <path
       sodipodi:type="star"
       style="fill:#20201e;fill-opacity:1;stroke:none;stroke-width:4.15799999;stroke-miterlimit:4;stroke-dasharray:none;stroke-opacity:1"
       id="path3513"
       sodipodi:sides="5"
       sodipodi:cx="56.571426"
       sodipodi:cy="378.68634"
       sodipodi:r1="35.043877"
       sodipodi:r2="17.521938"
       sodipodi:arg1="-1.5707963"
       sodipodi:arg2="-0.9424778"
       inkscape:flatsided="false"
       inkscape:rounded="0"
       inkscape:randomized="0"
       d="m 56.571427,343.64246 10.299136,20.86833 23.029571,3.3464 -16.664354,16.24373 3.93392,22.93651 -20.598274,-10.82915 -20.598274,10.82915 3.933921,-22.93651 -16.664354,-16.24373 23.02957,-3.3464 z"
       inkscape:transform-center-y="-3.3463931" />
    <path
       inkscape:transform-center-y="-3.3463931"
       d="m 136.57143,343.64246 10.29913,20.86833 23.02957,3.3464 -16.66435,16.24373 3.93392,22.93651 -20.59827,-10.82915 -20.59828,10.82915 3.93392,-22.93651 -16.66435,-16.24373 23.02957,-3.3464 z"
       inkscape:randomized="0"
       inkscape:rounded="0"
       inkscape:flatsided="false"
       sodipodi:arg2="-0.9424778"
       sodipodi:arg1="-1.5707963"
       sodipodi:r2="17.521938"
       sodipodi:r1="35.043877"
       sodipodi:cy="378.68634"
       sodipodi:cx="136.57143"
       sodipodi:sides="5"
       id="path3515"
       style="fill:#20201e;fill-opacity:1;stroke:none;stroke-width:4.15799999;stroke-miterlimit:4;stroke-dasharray:none;stroke-opacity:1"
       sodipodi:type="star" />
    <path
       sodipodi:type="star"
       style="fill:#20201e;fill-opacity:1;stroke:none;stroke-width:4.15799999;stroke-miterlimit:4;stroke-dasharray:none;stroke-opacity:1"
       id="path3517"
       sodipodi:sides="5"
       sodipodi:cx="216.57143"
       sodipodi:cy="378.68634"
       sodipodi:r1="35.043877"
       sodipodi:r2="17.521938"
       sodipodi:arg1="-1.5707963"
       sodipodi:arg2="-0.9424778"
       inkscape:flatsided="false"
       inkscape:rounded="0"
       inkscape:randomized="0"
       d="m 216.57143,343.64246 10.29913,20.86833 23.02957,3.3464 -16.66435,16.24373 3.93392,22.93651 -20.59827,-10.82915 -20.59828,10.82915 3.93392,-22.93651 -16.66435,-16.24373 23.02957,-3.3464 z"
       inkscape:transform-center-y="-3.3463931" />
    <path
       inkscape:transform-center-y="-3.3463931"
       d="m 296.57144,343.64246 10.29914,20.86833 23.02957,3.3464 -16.66435,16.24373 3.93391,22.93651 -20.59827,-10.82915 -20.59827,10.82915 3.93392,-22.93651 -16.66436,-16.24373 23.02957,-3.3464 z"
       inkscape:randomized="0"
       inkscape:rounded="0"
       inkscape:flatsided="false"
       sodipodi:arg2="-0.9424778"
       sodipodi:arg1="-1.5707963"
       sodipodi:r2="17.521938"
       sodipodi:r1="35.043877"
       sodipodi:cy="378.68634"
       sodipodi:cx="296.57144"
       sodipodi:sides="5"
       id="path3519"
       style="fill:#20201e;fill-opacity:1;stroke:none;stroke-width:4.15799999;stroke-miterlimit:4;stroke-dasharray:none;stroke-opacity:1"
       sodipodi:type="star" />
    <path
       sodipodi:type="star"
       style="fill:#20201e;fill-opacity:1;stroke:none;stroke-width:4.15799999;stroke-miterlimit:4;stroke-dasharray:none;stroke-opacity:1"
       id="path3521"
       sodipodi:sides="5"
       sodipodi:cx="376.57144"
       sodipodi:cy="378.68634"
       sodipodi:r1="35.043877"
       sodipodi:r2="17.521938"
       sodipodi:arg1="-1.5707963"
       sodipodi:arg2="-0.9424778"
       inkscape:flatsided="false"
       inkscape:rounded="0"
       inkscape:randomized="0"
       d="m 376.57144,343.64246 10.29914,20.86833 23.02957,3.3464 -16.66435,16.24373 3.93391,22.93651 -20.59827,-10.82915 -20.59827,10.82915 3.93392,-22.93651 -16.66436,-16.24373 23.02957,-3.3464 z"
       inkscape:transform-center-y="-3.3463931" />
    <path
       inkscape:transform-center-y="-3.3463931"
       d="m 456.57144,343.64246 10.29914,20.86833 23.02957,3.3464 -16.66435,16.24373 3.93391,22.93651 -20.59827,-10.82915 -20.59827,10.82915 3.93392,-22.93651 -16.66436,-16.24373 23.02957,-3.3464 z"
       inkscape:randomized="0"
       inkscape:rounded="0"
       inkscape:flatsided="false"
       sodipodi:arg2="-0.9424778"
       sodipodi:arg1="-1.5707963"
       sodipodi:r2="17.521938"
       sodipodi:r1="35.043877"
       sodipodi:cy="378.68634"
       sodipodi:cx="456.57144"
       sodipodi:sides="5"
       id="path3523"
       style="fill:#20201e;fill-opacity:1;stroke:none;stroke-width:4.15799999;stroke-miterlimit:4;stroke-dasharray:none;stroke-opacity:1"
       sodipodi:type="star" />
    <path
       sodipodi:type="star"
       style="fill:#20201e;fill-opacity:1;stroke:none;stroke-width:4.15799999;stroke-miterlimit:4;stroke-dasharray:none;stroke-opacity:1"
       id="path3525"
       sodipodi:sides="5"
       sodipodi:cx="536.57141"
       sodipodi:cy="378.68634"
       sodipodi:r1="35.043877"
       sodipodi:r2="17.521938"
       sodipodi:arg1="-1.5707963"
       sodipodi:arg2="-0.9424778"
       inkscape:flatsided="false"
       inkscape:rounded="0"
       inkscape:randomized="0"
       d="m 536.57141,343.64246 10.29914,20.86833 23.02957,3.3464 -16.66436,16.24373 3.93392,22.93651 -20.59827,-10.82915 -20.59827,10.82915 3.93392,-22.93651 -16.66436,-16.24373 23.02957,-3.3464 z"
       inkscape:transform-center-y="-3.3463931" />
    <path
       inkscape:transform-center-y="-3.3463931"
       d="m 616.57141,343.64246 10.29914,20.86833 23.02957,3.3464 -16.66436,16.24373 3.93392,22.93651 -20.59827,-10.82915 -20.59827,10.82915 3.93392,-22.93651 -16.66436,-16.24373 23.02957,-3.3464 z"
       inkscape:randomized="0"
       inkscape:rounded="0"
       inkscape:flatsided="false"
       sodipodi:arg2="-0.9424778"
       sodipodi:arg1="-1.5707963"
       sodipodi:r2="17.521938"
       sodipodi:r1="35.043877"
       sodipodi:cy="378.68634"
       sodipodi:cx="616.57141"
       sodipodi:sides="5"
       id="path3527"
       style="fill:#20201e;fill-opacity:1;stroke:none;stroke-width:4.15799999;stroke-miterlimit:4;stroke-dasharray:none;stroke-opacity:1"
       sodipodi:type="star" />
    <path
       sodipodi:type="star"
       style="fill:#20201e;fill-opacity:1;stroke:none;stroke-width:4.15799999;stroke-miterlimit:4;stroke-dasharray:none;stroke-opacity:1"
       id="path3529"
       sodipodi:sides="5"
       sodipodi:cx="696.57141"
       sodipodi:cy="378.68634"
       sodipodi:r1="35.043877"
       sodipodi:r2="17.521938"
       sodipodi:arg1="-1.5707963"
       sodipodi:arg2="-0.9424778"
       inkscape:flatsided="false"
       inkscape:rounded="0"
       inkscape:randomized="0"
       d="m 696.57141,343.64246 10.29914,20.86833 23.02957,3.3464 -16.66436,16.24373 3.93392,22.93651 -20.59827,-10.82915 -20.59827,10.82915 3.93392,-22.93651 -16.66436,-16.24373 23.02957,-3.3464 z"
       inkscape:transform-center-y="-3.3463931" />
    <path
       inkscape:transform-center-y="-3.3463931"
       d="m 56.571427,423.64246 10.299136,20.86833 23.029571,3.3464 -16.664354,16.24373 3.93392,22.93651 -20.598274,-10.82915 -20.598274,10.82915 3.933921,-22.93651 -16.664354,-16.24373 23.02957,-3.3464 z"
       inkscape:randomized="0"
       inkscape:rounded="0"
       inkscape:flatsided="false"
       sodipodi:arg2="-0.9424778"
       sodipodi:arg1="-1.5707963"
       sodipodi:r2="17.521938"
       sodipodi:r1="35.043877"
       sodipodi:cy="458.68634"
       sodipodi:cx="56.571426"
       sodipodi:sides="5"
       id="path3531"
       style="fill:#20201e;fill-opacity:1;stroke:none;stroke-width:4.15799999;stroke-miterlimit:4;stroke-dasharray:none;stroke-opacity:1"
       sodipodi:type="star" />
    <path
       sodipodi:type="star"
       style="fill:#20201e;fill-opacity:1;stroke:none;stroke-width:4.15799999;stroke-miterlimit:4;stroke-dasharray:none;stroke-opacity:1"
       id="path3533"
       sodipodi:sides="5"
       sodipodi:cx="136.57143"
       sodipodi:cy="458.68634"
       sodipodi:r1="35.043877"
       sodipodi:r2="17.521938"
       sodipodi:arg1="-1.5707963"
       sodipodi:arg2="-0.9424778"
       inkscape:flatsided="false"
       inkscape:rounded="0"
       inkscape:randomized="0"
       d="m 136.57143,423.64246 10.29913,20.86833 23.02957,3.3464 -16.66435,16.24373 3.93392,22.93651 -20.59827,-10.82915 -20.59828,10.82915 3.93392,-22.93651 -16.66435,-16.24373 23.02957,-3.3464 z"
       inkscape:transform-center-y="-3.3463931" />
    <path
       inkscape:transform-center-y="-3.3463931"
       d="m 216.57143,423.64246 10.29913,20.86833 23.02957,3.3464 -16.66435,16.24373 3.93392,22.93651 -20.59827,-10.82915 -20.59828,10.82915 3.93392,-22.93651 -16.66435,-16.24373 23.02957,-3.3464 z"
       inkscape:randomized="0"
       inkscape:rounded="0"
       inkscape:flatsided="false"
       sodipodi:arg2="-0.9424778"
       sodipodi:arg1="-1.5707963"
       sodipodi:r2="17.521938"
       sodipodi:r1="35.043877"
       sodipodi:cy="458.68634"
       sodipodi:cx="216.57143"
       sodipodi:sides="5"
       id="path3535"
       style="fill:#20201e;fill-opacity:1;stroke:none;stroke-width:4.15799999;stroke-miterlimit:4;stroke-dasharray:none;stroke-opacity:1"
       sodipodi:type="star" />
    <path
       sodipodi:type="star"
       style="fill:#20201e;fill-opacity:1;stroke:none;stroke-width:4.15799999;stroke-miterlimit:4;stroke-dasharray:none;stroke-opacity:1"
       id="path3537"
       sodipodi:sides="5"
       sodipodi:cx="296.57144"
       sodipodi:cy="458.68634"
       sodipodi:r1="35.043877"
       sodipodi:r2="17.521938"
       sodipodi:arg1="-1.5707963"
       sodipodi:arg2="-0.9424778"
       inkscape:flatsided="false"
       inkscape:rounded="0"
       inkscape:randomized="0"
       d="m 296.57144,423.64246 10.29914,20.86833 23.02957,3.3464 -16.66435,16.24373 3.93391,22.93651 -20.59827,-10.82915 -20.59827,10.82915 3.93392,-22.93651 -16.66436,-16.24373 23.02957,-3.3464 z"
       inkscape:transform-center-y="-3.3463931" />
    <path
       inkscape:transform-center-y="-3.3463931"
       d="m 376.57144,423.64246 10.29914,20.86833 23.02957,3.3464 -16.66435,16.24373 3.93391,22.93651 -20.59827,-10.82915 -20.59827,10.82915 3.93392,-22.93651 -16.66436,-16.24373 23.02957,-3.3464 z"
       inkscape:randomized="0"
       inkscape:rounded="0"
       inkscape:flatsided="false"
       sodipodi:arg2="-0.9424778"
       sodipodi:arg1="-1.5707963"
       sodipodi:r2="17.521938"
       sodipodi:r1="35.043877"
       sodipodi:cy="458.68634"
       sodipodi:cx="376.57144"
       sodipodi:sides="5"
       id="path3539"
       style="fill:#20201e;fill-opacity:1;stroke:none;stroke-width:4.15799999;stroke-miterlimit:4;stroke-dasharray:none;stroke-opacity:1"
       sodipodi:type="star" />
    <path
       sodipodi:type="star"
       style="fill:#20201e;fill-opacity:1;stroke:none;stroke-width:4.15799999;stroke-miterlimit:4;stroke-dasharray:none;stroke-opacity:1"
       id="path3541"
       sodipodi:sides="5"
       sodipodi:cx="456.57144"
       sodipodi:cy="458.68634"
       sodipodi:r1="35.043877"
       sodipodi:r2="17.521938"
       sodipodi:arg1="-1.5707963"
       sodipodi:arg2="-0.9424778"
       inkscape:flatsided="false"
       inkscape:rounded="0"
       inkscape:randomized="0"
       d="m 456.57144,423.64246 10.29914,20.86833 23.02957,3.3464 -16.66435,16.24373 3.93391,22.93651 -20.59827,-10.82915 -20.59827,10.82915 3.93392,-22.93651 -16.66436,-16.24373 23.02957,-3.3464 z"
       inkscape:transform-center-y="-3.3463931" />
    <path
       inkscape:transform-center-y="-3.3463931"
       d="m 536.57141,423.64246 10.29914,20.86833 23.02957,3.3464 -16.66436,16.24373 3.93392,22.93651 -20.59827,-10.82915 -20.59827,10.82915 3.93392,-22.93651 -16.66436,-16.24373 23.02957,-3.3464 z"
       inkscape:randomized="0"
       inkscape:rounded="0"
       inkscape:flatsided="false"
       sodipodi:arg2="-0.9424778"
       sodipodi:arg1="-1.5707963"
       sodipodi:r2="17.521938"
       sodipodi:r1="35.043877"
       sodipodi:cy="458.68634"
       sodipodi:cx="536.57141"
       sodipodi:sides="5"
       id="path3543"
       style="fill:#20201e;fill-opacity:1;stroke:none;stroke-width:4.15799999;stroke-miterlimit:4;stroke-dasharray:none;stroke-opacity:1"
       sodipodi:type="star" />
    <path
       sodipodi:type="star"
       style="fill:#20201e;fill-opacity:1;stroke:none;stroke-width:4.15799999;stroke-miterlimit:4;stroke-dasharray:none;stroke-opacity:1"
       id="path3545"
       sodipodi:sides="5"
       sodipodi:cx="616.57141"
       sodipodi:cy="458.68634"
       sodipodi:r1="35.043877"
       sodipodi:r2="17.521938"
       sodipodi:arg1="-1.5707963"
       sodipodi:arg2="-0.9424778"
       inkscape:flatsided="false"
       inkscape:rounded="0"
       inkscape:randomized="0"
       d="m 616.57141,423.64246 10.29914,20.86833 23.02957,3.3464 -16.66436,16.24373 3.93392,22.93651 -20.59827,-10.82915 -20.59827,10.82915 3.93392,-22.93651 -16.66436,-16.24373 23.02957,-3.3464 z"
       inkscape:transform-center-y="-3.3463931" />
    <path
       inkscape:transform-center-y="-3.3463931"
       d="m 696.57141,423.64246 10.29914,20.86833 23.02957,3.3464 -16.66436,16.24373 3.93392,22.93651 -20.59827,-10.82915 -20.59827,10.82915 3.93392,-22.93651 -16.66436,-16.24373 23.02957,-3.3464 z"
       inkscape:randomized="0"
       inkscape:rounded="0"
       inkscape:flatsided="false"
       sodipodi:arg2="-0.9424778"
       sodipodi:arg1="-1.5707963"
       sodipodi:r2="17.521938"
       sodipodi:r1="35.043877"
       sodipodi:cy="458.68634"
       sodipodi:cx="696.57141"
       sodipodi:sides="5"
       id="path3547"
       style="fill:#20201e;fill-opacity:1;stroke:none;stroke-width:4.15799999;stroke-miterlimit:4;stroke-dasharray:none;stroke-opacity:1"
       sodipodi:type="star" />
    <path
       sodipodi:type="star"
       style="fill:#20201e;fill-opacity:1;stroke:none;stroke-width:4.15799999;stroke-miterlimit:4;stroke-dasharray:none;stroke-opacity:1"
       id="path3549"
       sodipodi:sides="5"
       sodipodi:cx="56.571426"
       sodipodi:cy="538.68634"
       sodipodi:r1="35.043877"
       sodipodi:r2="17.521938"
       sodipodi:arg1="-1.5707963"
       sodipodi:arg2="-0.9424778"
       inkscape:flatsided="false"
       inkscape:rounded="0"
       inkscape:randomized="0"
       d="m 56.571427,503.64246 10.299136,20.86833 23.029571,3.3464 -16.664354,16.24373 3.93392,22.93651 -20.598274,-10.82915 -20.598274,10.82915 3.933921,-22.93651 -16.664354,-16.24373 23.02957,-3.3464 z"
       inkscape:transform-center-y="-3.3463931" />
    <path
       inkscape:transform-center-y="-3.3463931"
       d="m 136.57143,503.64246 10.29913,20.86833 23.02957,3.3464 -16.66435,16.24373 3.93392,22.93651 -20.59827,-10.82915 -20.59828,10.82915 3.93392,-22.93651 -16.66435,-16.24373 23.02957,-3.3464 z"
       inkscape:randomized="0"
       inkscape:rounded="0"
       inkscape:flatsided="false"
       sodipodi:arg2="-0.9424778"
       sodipodi:arg1="-1.5707963"
       sodipodi:r2="17.521938"
       sodipodi:r1="35.043877"
       sodipodi:cy="538.68634"
       sodipodi:cx="136.57143"
       sodipodi:sides="5"
       id="path3551"
       style="fill:#20201e;fill-opacity:1;stroke:none;stroke-width:4.15799999;stroke-miterlimit:4;stroke-dasharray:none;stroke-opacity:1"
       sodipodi:type="star" />
    <path
       sodipodi:type="star"
       style="fill:#20201e;fill-opacity:1;stroke:none;stroke-width:4.15799999;stroke-miterlimit:4;stroke-dasharray:none;stroke-opacity:1"
       id="path3553"
       sodipodi:sides="5"
       sodipodi:cx="216.57143"
       sodipodi:cy="538.68634"
       sodipodi:r1="35.043877"
       sodipodi:r2="17.521938"
       sodipodi:arg1="-1.5707963"
       sodipodi:arg2="-0.9424778"
       inkscape:flatsided="false"
       inkscape:rounded="0"
       inkscape:randomized="0"
       d="m 216.57143,503.64246 10.29913,20.86833 23.02957,3.3464 -16.66435,16.24373 3.93392,22.93651 -20.59827,-10.82915 -20.59828,10.82915 3.93392,-22.93651 -16.66435,-16.24373 23.02957,-3.3464 z"
       inkscape:transform-center-y="-3.3463931" />
    <path
       inkscape:transform-center-y="-3.3463931"
       d="m 296.57144,503.64246 10.29914,20.86833 23.02957,3.3464 -16.66435,16.24373 3.93391,22.93651 -20.59827,-10.82915 -20.59827,10.82915 3.93392,-22.93651 -16.66436,-16.24373 23.02957,-3.3464 z"
       inkscape:randomized="0"
       inkscape:rounded="0"
       inkscape:flatsided="false"
       sodipodi:arg2="-0.9424778"
       sodipodi:arg1="-1.5707963"
       sodipodi:r2="17.521938"
       sodipodi:r1="35.043877"
       sodipodi:cy="538.68634"
       sodipodi:cx="296.57144"
       sodipodi:sides="5"
       id="path3555"
       style="fill:#20201e;fill-opacity:1;stroke:none;stroke-width:4.15799999;stroke-miterlimit:4;stroke-dasharray:none;stroke-opacity:1"
       sodipodi:type="star" />
    <path
       sodipodi:type="star"
       style="fill:#20201e;fill-opacity:1;stroke:none;stroke-width:4.15799999;stroke-miterlimit:4;stroke-dasharray:none;stroke-opacity:1"
       id="path3557"
       sodipodi:sides="5"
       sodipodi:cx="376.57144"
       sodipodi:cy="538.68634"
       sodipodi:r1="35.043877"
       sodipodi:r2="17.521938"
       sodipodi:arg1="-1.5707963"
       sodipodi:arg2="-0.9424778"
       inkscape:flatsided="false"
       inkscape:rounded="0"
       inkscape:randomized="0"
       d="m 376.57144,503.64246 10.29914,20.86833 23.02957,3.3464 -16.66435,16.24373 3.93391,22.93651 -20.59827,-10.82915 -20.59827,10.82915 3.93392,-22.93651 -16.66436,-16.24373 23.02957,-3.3464 z"
       inkscape:transform-center-y="-3.3463931" />
    <path
       inkscape:transform-center-y="-3.3463931"
       d="m 456.57144,503.64246 10.29914,20.86833 23.02957,3.3464 -16.66435,16.24373 3.93391,22.93651 -20.59827,-10.82915 -20.59827,10.82915 3.93392,-22.93651 -16.66436,-16.24373 23.02957,-3.3464 z"
       inkscape:randomized="0"
       inkscape:rounded="0"
       inkscape:flatsided="false"
       sodipodi:arg2="-0.9424778"
       sodipodi:arg1="-1.5707963"
       sodipodi:r2="17.521938"
       sodipodi:r1="35.043877"
       sodipodi:cy="538.68634"
       sodipodi:cx="456.57144"
       sodipodi:sides="5"
       id="path3559"
       style="fill:#20201e;fill-opacity:1;stroke:none;stroke-width:4.15799999;stroke-miterlimit:4;stroke-dasharray:none;stroke-opacity:1"
       sodipodi:type="star" />
    <path
       sodipodi:type="star"
       style="fill:#20201e;fill-opacity:1;stroke:none;stroke-width:4.15799999;stroke-miterlimit:4;stroke-dasharray:none;stroke-opacity:1"
       id="path3561"
       sodipodi:sides="5"
       sodipodi:cx="536.57141"
       sodipodi:cy="538.68634"
       sodipodi:r1="35.043877"
       sodipodi:r2="17.521938"
       sodipodi:arg1="-1.5707963"
       sodipodi:arg2="-0.9424778"
       inkscape:flatsided="false"
       inkscape:rounded="0"
       inkscape:randomized="0"
       d="m 536.57141,503.64246 10.29914,20.86833 23.02957,3.3464 -16.66436,16.24373 3.93392,22.93651 -20.59827,-10.82915 -20.59827,10.82915 3.93392,-22.93651 -16.66436,-16.24373 23.02957,-3.3464 z"
       inkscape:transform-center-y="-3.3463931" />
    <path
       inkscape:transform-center-y="-3.3463931"
       d="m 616.57141,503.64246 10.29914,20.86833 23.02957,3.3464 -16.66436,16.24373 3.93392,22.93651 -20.59827,-10.82915 -20.59827,10.82915 3.93392,-22.93651 -16.66436,-16.24373 23.02957,-3.3464 z"
       inkscape:randomized="0"
       inkscape:rounded="0"
       inkscape:flatsided="false"
       sodipodi:arg2="-0.9424778"
       sodipodi:arg1="-1.5707963"
       sodipodi:r2="17.521938"
       sodipodi:r1="35.043877"
       sodipodi:cy="538.68634"
       sodipodi:cx="616.57141"
       sodipodi:sides="5"
       id="path3563"
       style="fill:#20201e;fill-opacity:1;stroke:none;stroke-width:4.15799999;stroke-miterlimit:4;stroke-dasharray:none;stroke-opacity:1"
       sodipodi:type="star" />
    <path
       sodipodi:type="star"
       style="fill:#20201e;fill-opacity:1;stroke:none;stroke-width:4.15799999;stroke-miterlimit:4;stroke-dasharray:none;stroke-opacity:1"
       id="path3565"
       sodipodi:sides="5"
       sodipodi:cx="696.57141"
       sodipodi:cy="538.68634"
       sodipodi:r1="35.043877"
       sodipodi:r2="17.521938"
       sodipodi:arg1="-1.5707963"
       sodipodi:arg2="-0.9424778"
       inkscape:flatsided="false"
       inkscape:rounded="0"
       inkscape:randomized="0"
       d="m 696.57141,503.64246 10.29914,20.86833 23.02957,3.3464 -16.66436,16.24373 3.93392,22.93651 -20.59827,-10.82915 -20.59827,10.82915 3.93392,-22.93651 -16.66436,-16.24373 23.02957,-3.3464 z"
       inkscape:transform-center-y="-3.3463931" />
    <g
       id="g3683"
       transform="translate(9.0873891,0)">
      <path
         d="m 40.134048,638.28737 c -1.573311,0 -2.852165,-1.28395 -2.852165,-2.8615 l 0,-23.30612 -12.509303,-0.006 16.996735,-18.60484 17.003518,18.61077 -12.52627,0 0,17.17155 13.450406,0 8.813618,8.99608 -28.376539,0 z m 61.013082,-18.80172 -12.513542,0 0,-23.31291 c 0,-1.57755 -1.279701,-2.86149 -2.852165,-2.86149 l -28.370604,0 8.807684,8.99607 13.448709,0 0,17.17154 -12.518639,0.007 17.001822,18.6074 16.996735,-18.6074 z"
         id="Retweet"
         inkscape:connector-curvature="0" />
      <path
         inkscape:connector-curvature="0"
         id="path3587"
         d="m 140.13405,638.28737 c -1.57331,0 -2.85217,-1.28395 -2.85217,-2.8615 l 0,-23.30612 -12.5093,-0.006 16.99674,-18.60484 17.00351,18.61077 -12.52627,0 0,17.17155 13.45041,0 8.81362,8.99608 -28.37654,0 z m 61.01308,-18.80172 -12.51354,0 0,-23.31291 c 0,-1.57755 -1.2797,-2.86149 -2.85217,-2.86149 l -28.3706,0 8.80768,8.99607 13.44871,0 0,17.17154 -12.51864,0.007 17.00183,18.6074 16.99673,-18.6074 z" />
      <path
         d="m 240.13405,638.28737 c -1.57331,0 -2.85217,-1.28395 -2.85217,-2.8615 l 0,-23.30612 -12.5093,-0.006 16.99674,-18.60484 17.00351,18.61077 -12.52627,0 0,17.17155 13.45041,0 8.81362,8.99608 -28.37654,0 z m 61.01308,-18.80172 -12.51354,0 0,-23.31291 c 0,-1.57755 -1.2797,-2.86149 -2.85217,-2.86149 l -28.3706,0 8.80768,8.99607 13.44871,0 0,17.17154 -12.51864,0.007 17.00183,18.6074 16.99673,-18.6074 z"
         id="path3589"
         inkscape:connector-curvature="0" />
      <path
         inkscape:connector-curvature="0"
         id="path3591"
         d="m 340.13405,638.28737 c -1.57331,0 -2.85217,-1.28395 -2.85217,-2.8615 l 0,-23.30612 -12.5093,-0.006 16.99674,-18.60484 17.00351,18.61077 -12.52627,0 0,17.17155 13.45041,0 8.81362,8.99608 -28.37654,0 z m 61.01308,-18.80172 -12.51354,0 0,-23.31291 c 0,-1.57755 -1.2797,-2.86149 -2.85217,-2.86149 l -28.3706,0 8.80768,8.99607 13.44871,0 0,17.17154 -12.51864,0.007 17.00183,18.6074 16.99673,-18.6074 z" />
      <path
         d="m 440.13405,638.28737 c -1.57331,0 -2.85217,-1.28395 -2.85217,-2.8615 l 0,-23.30612 -12.5093,-0.006 16.99674,-18.60484 17.00351,18.61077 -12.52627,0 0,17.17155 13.45041,0 8.81362,8.99608 -28.37654,0 z m 61.01308,-18.80172 -12.51354,0 0,-23.31291 c 0,-1.57755 -1.2797,-2.86149 -2.85217,-2.86149 l -28.3706,0 8.80768,8.99607 13.44871,0 0,17.17154 -12.51864,0.007 17.00183,18.6074 16.99673,-18.6074 z"
         id="path3593"
         inkscape:connector-curvature="0" />
      <path
         inkscape:connector-curvature="0"
         id="path3595"
         d="m 540.13405,638.28737 c -1.57331,0 -2.85217,-1.28395 -2.85217,-2.8615 l 0,-23.30612 -12.5093,-0.006 16.99674,-18.60484 17.00351,18.61077 -12.52627,0 0,17.17155 13.45041,0 8.81362,8.99608 -28.37654,0 z m 61.01308,-18.80172 -12.51354,0 0,-23.31291 c 0,-1.57755 -1.2797,-2.86149 -2.85217,-2.86149 l -28.3706,0 8.80768,8.99607 13.44871,0 0,17.17154 -12.51864,0.007 17.00183,18.6074 16.99673,-18.6074 z" />
      <path
         d="m 640.13405,638.28737 c -1.57331,0 -2.85217,-1.28395 -2.85217,-2.8615 l 0,-23.30612 -12.5093,-0.006 16.99674,-18.60484 17.00351,18.61077 -12.52627,0 0,17.17155 13.45041,0 8.81362,8.99608 -28.37654,0 z m 61.01308,-18.80172 -12.51354,0 0,-23.31291 c 0,-1.57755 -1.2797,-2.86149 -2.85217,-2.86149 l -28.3706,0 8.80768,8.99607 13.44871,0 0,17.17154 -12.51864,0.007 17.00183,18.6074 16.99673,-18.6074 z"
         id="path3597"
         inkscape:connector-curvature="0" />
      <path
         inkscape:connector-curvature="0"
         id="path3599"
         d="m 40.134048,698.28737 c -1.573311,0 -2.852165,-1.28395 -2.852165,-2.8615 l 0,-23.30612 -12.509303,-0.006 16.996735,-18.60484 17.003518,18.61077 -12.52627,0 0,17.17155 13.450406,0 8.813618,8.99608 -28.376539,0 z m 61.013082,-18.80172 -12.513542,0 0,-23.31291 c 0,-1.57755 -1.279701,-2.86149 -2.852165,-2.86149 l -28.370604,0 8.807684,8.99607 13.448709,0 0,17.17154 -12.518639,0.007 17.001822,18.6074 16.996735,-18.6074 z" />
      <path
         d="m 140.13405,698.28737 c -1.57331,0 -2.85217,-1.28395 -2.85217,-2.8615 l 0,-23.30612 -12.5093,-0.006 16.99674,-18.60484 17.00351,18.61077 -12.52627,0 0,17.17155 13.45041,0 8.81362,8.99608 -28.37654,0 z m 61.01308,-18.80172 -12.51354,0 0,-23.31291 c 0,-1.57755 -1.2797,-2.86149 -2.85217,-2.86149 l -28.3706,0 8.80768,8.99607 13.44871,0 0,17.17154 -12.51864,0.007 17.00183,18.6074 16.99673,-18.6074 z"
         id="path3601"
         inkscape:connector-curvature="0" />
      <path
         inkscape:connector-curvature="0"
         id="path3603"
         d="m 240.13405,698.28737 c -1.57331,0 -2.85217,-1.28395 -2.85217,-2.8615 l 0,-23.30612 -12.5093,-0.006 16.99674,-18.60484 17.00351,18.61077 -12.52627,0 0,17.17155 13.45041,0 8.81362,8.99608 -28.37654,0 z m 61.01308,-18.80172 -12.51354,0 0,-23.31291 c 0,-1.57755 -1.2797,-2.86149 -2.85217,-2.86149 l -28.3706,0 8.80768,8.99607 13.44871,0 0,17.17154 -12.51864,0.007 17.00183,18.6074 16.99673,-18.6074 z" />
      <path
         d="m 340.13405,698.28737 c -1.57331,0 -2.85217,-1.28395 -2.85217,-2.8615 l 0,-23.30612 -12.5093,-0.006 16.99674,-18.60484 17.00351,18.61077 -12.52627,0 0,17.17155 13.45041,0 8.81362,8.99608 -28.37654,0 z m 61.01308,-18.80172 -12.51354,0 0,-23.31291 c 0,-1.57755 -1.2797,-2.86149 -2.85217,-2.86149 l -28.3706,0 8.80768,8.99607 13.44871,0 0,17.17154 -12.51864,0.007 17.00183,18.6074 16.99673,-18.6074 z"
         id="path3605"
         inkscape:connector-curvature="0" />
      <path
         inkscape:connector-curvature="0"
         id="path3607"
         d="m 440.13405,698.28737 c -1.57331,0 -2.85217,-1.28395 -2.85217,-2.8615 l 0,-23.30612 -12.5093,-0.006 16.99674,-18.60484 17.00351,18.61077 -12.52627,0 0,17.17155 13.45041,0 8.81362,8.99608 -28.37654,0 z m 61.01308,-18.80172 -12.51354,0 0,-23.31291 c 0,-1.57755 -1.2797,-2.86149 -2.85217,-2.86149 l -28.3706,0 8.80768,8.99607 13.44871,0 0,17.17154 -12.51864,0.007 17.00183,18.6074 16.99673,-18.6074 z" />
      <path
         d="m 540.13405,698.28737 c -1.57331,0 -2.85217,-1.28395 -2.85217,-2.8615 l 0,-23.30612 -12.5093,-0.006 16.99674,-18.60484 17.00351,18.61077 -12.52627,0 0,17.17155 13.45041,0 8.81362,8.99608 -28.37654,0 z m 61.01308,-18.80172 -12.51354,0 0,-23.31291 c 0,-1.57755 -1.2797,-2.86149 -2.85217,-2.86149 l -28.3706,0 8.80768,8.99607 13.44871,0 0,17.17154 -12.51864,0.007 17.00183,18.6074 16.99673,-18.6074 z"
         id="path3609"
         inkscape:connector-curvature="0" />
      <path
         inkscape:connector-curvature="0"
         id="path3611"
         d="m 640.13405,698.28737 c -1.57331,0 -2.85217,-1.28395 -2.85217,-2.8615 l 0,-23.30612 -12.5093,-0.006 16.99674,-18.60484 17.00351,18.61077 -12.52627,0 0,17.17155 13.45041,0 8.81362,8.99608 -28.37654,0 z m 61.01308,-18.80172 -12.51354,0 0,-23.31291 c 0,-1.57755 -1.2797,-2.86149 -2.85217,-2.86149 l -28.3706,0 8.80768,8.99607 13.44871,0 0,17.17154 -12.51864,0.007 17.00183,18.6074 16.99673,-18.6074 z" />
      <path
         d="m 40.134048,758.28737 c -1.573311,0 -2.852165,-1.28395 -2.852165,-2.8615 l 0,-23.30612 -12.509303,-0.006 16.996735,-18.60484 17.003518,18.61077 -12.52627,0 0,17.17155 13.450406,0 8.813618,8.99608 -28.376539,0 z m 61.013082,-18.80172 -12.513542,0 0,-23.31291 c 0,-1.57755 -1.279701,-2.86149 -2.852165,-2.86149 l -28.370604,0 8.807684,8.99607 13.448709,0 0,17.17154 -12.518639,0.007 17.001822,18.6074 16.996735,-18.6074 z"
         id="path3613"
         inkscape:connector-curvature="0" />
      <path
         inkscape:connector-curvature="0"
         id="path3615"
         d="m 140.13405,758.28737 c -1.57331,0 -2.85217,-1.28395 -2.85217,-2.8615 l 0,-23.30612 -12.5093,-0.006 16.99674,-18.60484 17.00351,18.61077 -12.52627,0 0,17.17155 13.45041,0 8.81362,8.99608 -28.37654,0 z m 61.01308,-18.80172 -12.51354,0 0,-23.31291 c 0,-1.57755 -1.2797,-2.86149 -2.85217,-2.86149 l -28.3706,0 8.80768,8.99607 13.44871,0 0,17.17154 -12.51864,0.007 17.00183,18.6074 16.99673,-18.6074 z" />
      <path
         d="m 240.13405,758.28737 c -1.57331,0 -2.85217,-1.28395 -2.85217,-2.8615 l 0,-23.30612 -12.5093,-0.006 16.99674,-18.60484 17.00351,18.61077 -12.52627,0 0,17.17155 13.45041,0 8.81362,8.99608 -28.37654,0 z m 61.01308,-18.80172 -12.51354,0 0,-23.31291 c 0,-1.57755 -1.2797,-2.86149 -2.85217,-2.86149 l -28.3706,0 8.80768,8.99607 13.44871,0 0,17.17154 -12.51864,0.007 17.00183,18.6074 16.99673,-18.6074 z"
         id="path3617"
         inkscape:connector-curvature="0" />
      <path
         inkscape:connector-curvature="0"
         id="path3619"
         d="m 340.13405,758.28737 c -1.57331,0 -2.85217,-1.28395 -2.85217,-2.8615 l 0,-23.30612 -12.5093,-0.006 16.99674,-18.60484 17.00351,18.61077 -12.52627,0 0,17.17155 13.45041,0 8.81362,8.99608 -28.37654,0 z m 61.01308,-18.80172 -12.51354,0 0,-23.31291 c 0,-1.57755 -1.2797,-2.86149 -2.85217,-2.86149 l -28.3706,0 8.80768,8.99607 13.44871,0 0,17.17154 -12.51864,0.007 17.00183,18.6074 16.99673,-18.6074 z" />
      <path
         d="m 440.13405,758.28737 c -1.57331,0 -2.85217,-1.28395 -2.85217,-2.8615 l 0,-23.30612 -12.5093,-0.006 16.99674,-18.60484 17.00351,18.61077 -12.52627,0 0,17.17155 13.45041,0 8.81362,8.99608 -28.37654,0 z m 61.01308,-18.80172 -12.51354,0 0,-23.31291 c 0,-1.57755 -1.2797,-2.86149 -2.85217,-2.86149 l -28.3706,0 8.80768,8.99607 13.44871,0 0,17.17154 -12.51864,0.007 17.00183,18.6074 16.99673,-18.6074 z"
         id="path3621"
         inkscape:connector-curvature="0" />
      <path
         inkscape:connector-curvature="0"
         id="path3623"
         d="m 540.13405,758.28737 c -1.57331,0 -2.85217,-1.28395 -2.85217,-2.8615 l 0,-23.30612 -12.5093,-0.006 16.99674,-18.60484 17.00351,18.61077 -12.52627,0 0,17.17155 13.45041,0 8.81362,8.99608 -28.37654,0 z m 61.01308,-18.80172 -12.51354,0 0,-23.31291 c 0,-1.57755 -1.2797,-2.86149 -2.85217,-2.86149 l -28.3706,0 8.80768,8.99607 13.44871,0 0,17.17154 -12.51864,0.007 17.00183,18.6074 16.99673,-18.6074 z" />
      <path
         d="m 640.13405,758.28737 c -1.57331,0 -2.85217,-1.28395 -2.85217,-2.8615 l 0,-23.30612 -12.5093,-0.006 16.99674,-18.60484 17.00351,18.61077 -12.52627,0 0,17.17155 13.45041,0 8.81362,8.99608 -28.37654,0 z m 61.01308,-18.80172 -12.51354,0 0,-23.31291 c 0,-1.57755 -1.2797,-2.86149 -2.85217,-2.86149 l -28.3706,0 8.80768,8.99607 13.44871,0 0,17.17154 -12.51864,0.007 17.00183,18.6074 16.99673,-18.6074 z"
         id="path3625"
         inkscape:connector-curvature="0" />
      <path
         inkscape:connector-curvature="0"
         id="path3627"
         d="m 40.134048,818.28737 c -1.573311,0 -2.852165,-1.28395 -2.852165,-2.8615 l 0,-23.30612 -12.509303,-0.006 16.996735,-18.60484 17.003518,18.61077 -12.52627,0 0,17.17155 13.450406,0 8.813618,8.99608 -28.376539,0 z m 61.013082,-18.80172 -12.513542,0 0,-23.31291 c 0,-1.57755 -1.279701,-2.86149 -2.852165,-2.86149 l -28.370604,0 8.807684,8.99607 13.448709,0 0,17.17154 -12.518639,0.007 17.001822,18.6074 16.996735,-18.6074 z" />
      <path
         d="m 140.13405,818.28737 c -1.57331,0 -2.85217,-1.28395 -2.85217,-2.8615 l 0,-23.30612 -12.5093,-0.006 16.99674,-18.60484 17.00351,18.61077 -12.52627,0 0,17.17155 13.45041,0 8.81362,8.99608 -28.37654,0 z m 61.01308,-18.80172 -12.51354,0 0,-23.31291 c 0,-1.57755 -1.2797,-2.86149 -2.85217,-2.86149 l -28.3706,0 8.80768,8.99607 13.44871,0 0,17.17154 -12.51864,0.007 17.00183,18.6074 16.99673,-18.6074 z"
         id="path3629"
         inkscape:connector-curvature="0" />
      <path
         inkscape:connector-curvature="0"
         id="path3631"
         d="m 240.13405,818.28737 c -1.57331,0 -2.85217,-1.28395 -2.85217,-2.8615 l 0,-23.30612 -12.5093,-0.006 16.99674,-18.60484 17.00351,18.61077 -12.52627,0 0,17.17155 13.45041,0 8.81362,8.99608 -28.37654,0 z m 61.01308,-18.80172 -12.51354,0 0,-23.31291 c 0,-1.57755 -1.2797,-2.86149 -2.85217,-2.86149 l -28.3706,0 8.80768,8.99607 13.44871,0 0,17.17154 -12.51864,0.007 17.00183,18.6074 16.99673,-18.6074 z" />
      <path
         d="m 340.13405,818.28737 c -1.57331,0 -2.85217,-1.28395 -2.85217,-2.8615 l 0,-23.30612 -12.5093,-0.006 16.99674,-18.60484 17.00351,18.61077 -12.52627,0 0,17.17155 13.45041,0 8.81362,8.99608 -28.37654,0 z m 61.01308,-18.80172 -12.51354,0 0,-23.31291 c 0,-1.57755 -1.2797,-2.86149 -2.85217,-2.86149 l -28.3706,0 8.80768,8.99607 13.44871,0 0,17.17154 -12.51864,0.007 17.00183,18.6074 16.99673,-18.6074 z"
         id="path3633"
         inkscape:connector-curvature="0" />
      <path
         inkscape:connector-curvature="0"
         id="path3635"
         d="m 440.13405,818.28737 c -1.57331,0 -2.85217,-1.28395 -2.85217,-2.8615 l 0,-23.30612 -12.5093,-0.006 16.99674,-18.60484 17.00351,18.61077 -12.52627,0 0,17.17155 13.45041,0 8.81362,8.99608 -28.37654,0 z m 61.01308,-18.80172 -12.51354,0 0,-23.31291 c 0,-1.57755 -1.2797,-2.86149 -2.85217,-2.86149 l -28.3706,0 8.80768,8.99607 13.44871,0 0,17.17154 -12.51864,0.007 17.00183,18.6074 16.99673,-18.6074 z" />
      <path
         d="m 540.13405,818.28737 c -1.57331,0 -2.85217,-1.28395 -2.85217,-2.8615 l 0,-23.30612 -12.5093,-0.006 16.99674,-18.60484 17.00351,18.61077 -12.52627,0 0,17.17155 13.45041,0 8.81362,8.99608 -28.37654,0 z m 61.01308,-18.80172 -12.51354,0 0,-23.31291 c 0,-1.57755 -1.2797,-2.86149 -2.85217,-2.86149 l -28.3706,0 8.80768,8.99607 13.44871,0 0,17.17154 -12.51864,0.007 17.00183,18.6074 16.99673,-18.6074 z"
         id="path3637"
         inkscape:connector-curvature="0" />
      <path
         inkscape:connector-curvature="0"
         id="path3639"
         d="m 640.13405,818.28737 c -1.57331,0 -2.85217,-1.28395 -2.85217,-2.8615 l 0,-23.30612 -12.5093,-0.006 16.99674,-18.60484 17.00351,18.61077 -12.52627,0 0,17.17155 13.45041,0 8.81362,8.99608 -28.37654,0 z m 61.01308,-18.80172 -12.51354,0 0,-23.31291 c 0,-1.57755 -1.2797,-2.86149 -2.85217,-2.86149 l -28.3706,0 8.80768,8.99607 13.44871,0 0,17.17154 -12.51864,0.007 17.00183,18.6074 16.99673,-18.6074 z" />
      <path
         d="m 40.134048,878.28737 c -1.573311,0 -2.852165,-1.28395 -2.852165,-2.8615 l 0,-23.30612 -12.509303,-0.006 16.996735,-18.60484 17.003518,18.61077 -12.52627,0 0,17.17155 13.450406,0 8.813618,8.99608 -28.376539,0 z m 61.013082,-18.80172 -12.513542,0 0,-23.31291 c 0,-1.57755 -1.279701,-2.86149 -2.852165,-2.86149 l -28.370604,0 8.807684,8.99607 13.448709,0 0,17.17154 -12.518639,0.007 17.001822,18.6074 16.996735,-18.6074 z"
         id="path3641"
         inkscape:connector-curvature="0" />
      <path
         inkscape:connector-curvature="0"
         id="path3643"
         d="m 140.13405,878.28737 c -1.57331,0 -2.85217,-1.28395 -2.85217,-2.8615 l 0,-23.30612 -12.5093,-0.006 16.99674,-18.60484 17.00351,18.61077 -12.52627,0 0,17.17155 13.45041,0 8.81362,8.99608 -28.37654,0 z m 61.01308,-18.80172 -12.51354,0 0,-23.31291 c 0,-1.57755 -1.2797,-2.86149 -2.85217,-2.86149 l -28.3706,0 8.80768,8.99607 13.44871,0 0,17.17154 -12.51864,0.007 17.00183,18.6074 16.99673,-18.6074 z" />
      <path
         d="m 240.13405,878.28737 c -1.57331,0 -2.85217,-1.28395 -2.85217,-2.8615 l 0,-23.30612 -12.5093,-0.006 16.99674,-18.60484 17.00351,18.61077 -12.52627,0 0,17.17155 13.45041,0 8.81362,8.99608 -28.37654,0 z m 61.01308,-18.80172 -12.51354,0 0,-23.31291 c 0,-1.57755 -1.2797,-2.86149 -2.85217,-2.86149 l -28.3706,0 8.80768,8.99607 13.44871,0 0,17.17154 -12.51864,0.007 17.00183,18.6074 16.99673,-18.6074 z"
         id="path3645"
         inkscape:connector-curvature="0" />
      <path
         inkscape:connector-curvature="0"
         id="path3647"
         d="m 340.13405,878.28737 c -1.57331,0 -2.85217,-1.28395 -2.85217,-2.8615 l 0,-23.30612 -12.5093,-0.006 16.99674,-18.60484 17.00351,18.61077 -12.52627,0 0,17.17155 13.45041,0 8.81362,8.99608 -28.37654,0 z m 61.01308,-18.80172 -12.51354,0 0,-23.31291 c 0,-1.57755 -1.2797,-2.86149 -2.85217,-2.86149 l -28.3706,0 8.80768,8.99607 13.44871,0 0,17.17154 -12.51864,0.007 17.00183,18.6074 16.99673,-18.6074 z" />
      <path
         d="m 440.13405,878.28737 c -1.57331,0 -2.85217,-1.28395 -2.85217,-2.8615 l 0,-23.30612 -12.5093,-0.006 16.99674,-18.60484 17.00351,18.61077 -12.52627,0 0,17.17155 13.45041,0 8.81362,8.99608 -28.37654,0 z m 61.01308,-18.80172 -12.51354,0 0,-23.31291 c 0,-1.57755 -1.2797,-2.86149 -2.85217,-2.86149 l -28.3706,0 8.80768,8.99607 13.44871,0 0,17.17154 -12.51864,0.007 17.00183,18.6074 16.99673,-18.6074 z"
         id="path3649"
         inkscape:connector-curvature="0" />
      <path
         inkscape:connector-curvature="0"
         id="path3651"
         d="m 540.13405,878.28737 c -1.57331,0 -2.85217,-1.28395 -2.85217,-2.8615 l 0,-23.30612 -12.5093,-0.006 16.99674,-18.60484 17.00351,18.61077 -12.52627,0 0,17.17155 13.45041,0 8.81362,8.99608 -28.37654,0 z m 61.01308,-18.80172 -12.51354,0 0,-23.31291 c 0,-1.57755 -1.2797,-2.86149 -2.85217,-2.86149 l -28.3706,0 8.80768,8.99607 13.44871,0 0,17.17154 -12.51864,0.007 17.00183,18.6074 16.99673,-18.6074 z" />
      <path
         d="m 640.13405,878.28737 c -1.57331,0 -2.85217,-1.28395 -2.85217,-2.8615 l 0,-23.30612 -12.5093,-0.006 16.99674,-18.60484 17.00351,18.61077 -12.52627,0 0,17.17155 13.45041,0 8.81362,8.99608 -28.37654,0 z m 61.01308,-18.80172 -12.51354,0 0,-23.31291 c 0,-1.57755 -1.2797,-2.86149 -2.85217,-2.86149 l -28.3706,0 8.80768,8.99607 13.44871,0 0,17.17154 -12.51864,0.007 17.00183,18.6074 16.99673,-18.6074 z"
         id="path3653"
         inkscape:connector-curvature="0" />
      <path
         inkscape:connector-curvature="0"
         id="path3655"
         d="m 40.134048,938.28737 c -1.573311,0 -2.852165,-1.28395 -2.852165,-2.8615 l 0,-23.30612 -12.509303,-0.006 16.996735,-18.60484 17.003518,18.61077 -12.52627,0 0,17.17155 13.450406,0 8.813618,8.99608 -28.376539,0 z m 61.013082,-18.80172 -12.513542,0 0,-23.31291 c 0,-1.57755 -1.279701,-2.86149 -2.852165,-2.86149 l -28.370604,0 8.807684,8.99607 13.448709,0 0,17.17154 -12.518639,0.007 17.001822,18.6074 16.996735,-18.6074 z" />
      <path
         d="m 140.13405,938.28737 c -1.57331,0 -2.85217,-1.28395 -2.85217,-2.8615 l 0,-23.30612 -12.5093,-0.006 16.99674,-18.60484 17.00351,18.61077 -12.52627,0 0,17.17155 13.45041,0 8.81362,8.99608 -28.37654,0 z m 61.01308,-18.80172 -12.51354,0 0,-23.31291 c 0,-1.57755 -1.2797,-2.86149 -2.85217,-2.86149 l -28.3706,0 8.80768,8.99607 13.44871,0 0,17.17154 -12.51864,0.007 17.00183,18.6074 16.99673,-18.6074 z"
         id="path3657"
         inkscape:connector-curvature="0" />
      <path
         inkscape:connector-curvature="0"
         id="path3659"
         d="m 240.13405,938.28737 c -1.57331,0 -2.85217,-1.28395 -2.85217,-2.8615 l 0,-23.30612 -12.5093,-0.006 16.99674,-18.60484 17.00351,18.61077 -12.52627,0 0,17.17155 13.45041,0 8.81362,8.99608 -28.37654,0 z m 61.01308,-18.80172 -12.51354,0 0,-23.31291 c 0,-1.57755 -1.2797,-2.86149 -2.85217,-2.86149 l -28.3706,0 8.80768,8.99607 13.44871,0 0,17.17154 -12.51864,0.007 17.00183,18.6074 16.99673,-18.6074 z" />
      <path
         d="m 340.13405,938.28737 c -1.57331,0 -2.85217,-1.28395 -2.85217,-2.8615 l 0,-23.30612 -12.5093,-0.006 16.99674,-18.60484 17.00351,18.61077 -12.52627,0 0,17.17155 13.45041,0 8.81362,8.99608 -28.37654,0 z m 61.01308,-18.80172 -12.51354,0 0,-23.31291 c 0,-1.57755 -1.2797,-2.86149 -2.85217,-2.86149 l -28.3706,0 8.80768,8.99607 13.44871,0 0,17.17154 -12.51864,0.007 17.00183,18.6074 16.99673,-18.6074 z"
         id="path3661"
         inkscape:connector-curvature="0" />
      <path
         inkscape:connector-curvature="0"
         id="path3663"
         d="m 440.13405,938.28737 c -1.57331,0 -2.85217,-1.28395 -2.85217,-2.8615 l 0,-23.30612 -12.5093,-0.006 16.99674,-18.60484 17.00351,18.61077 -12.52627,0 0,17.17155 13.45041,0 8.81362,8.99608 -28.37654,0 z m 61.01308,-18.80172 -12.51354,0 0,-23.31291 c 0,-1.57755 -1.2797,-2.86149 -2.85217,-2.86149 l -28.3706,0 8.80768,8.99607 13.44871,0 0,17.17154 -12.51864,0.007 17.00183,18.6074 16.99673,-18.6074 z" />
      <path
         d="m 540.13405,938.28737 c -1.57331,0 -2.85217,-1.28395 -2.85217,-2.8615 l 0,-23.30612 -12.5093,-0.006 16.99674,-18.60484 17.00351,18.61077 -12.52627,0 0,17.17155 13.45041,0 8.81362,8.99608 -28.37654,0 z m 61.01308,-18.80172 -12.51354,0 0,-23.31291 c 0,-1.57755 -1.2797,-2.86149 -2.85217,-2.86149 l -28.3706,0 8.80768,8.99607 13.44871,0 0,17.17154 -12.51864,0.007 17.00183,18.6074 16.99673,-18.6074 z"
         id="path3665"
         inkscape:connector-curvature="0" />
      <path
         inkscape:connector-curvature="0"
         id="path3667"
         d="m 640.13405,938.28737 c -1.57331,0 -2.85217,-1.28395 -2.85217,-2.8615 l 0,-23.30612 -12.5093,-0.006 16.99674,-18.60484 17.00351,18.61077 -12.52627,0 0,17.17155 13.45041,0 8.81362,8.99608 -28.37654,0 z m 61.01308,-18.80172 -12.51354,0 0,-23.31291 c 0,-1.57755 -1.2797,-2.86149 -2.85217,-2.86149 l -28.3706,0 8.80768,8.99607 13.44871,0 0,17.17154 -12.51864,0.007 17.00183,18.6074 16.99673,-18.6074 z" />
      <path
         d="m 40.134048,998.28737 c -1.573311,0 -2.852165,-1.28395 -2.852165,-2.8615 l 0,-23.30612 -12.509303,-0.006 16.996735,-18.60484 17.003518,18.61077 -12.52627,0 0,17.17155 13.450406,0 8.813618,8.99608 -28.376539,0 z m 61.013082,-18.80172 -12.513542,0 0,-23.31291 c 0,-1.57755 -1.279701,-2.86149 -2.852165,-2.86149 l -28.370604,0 8.807684,8.99607 13.448709,0 0,17.17154 -12.518639,0.007 17.001822,18.6074 16.996735,-18.6074 z"
         id="path3669"
         inkscape:connector-curvature="0" />
      <path
         inkscape:connector-curvature="0"
         id="path3671"
         d="m 140.13405,998.28737 c -1.57331,0 -2.85217,-1.28395 -2.85217,-2.8615 l 0,-23.30612 -12.5093,-0.006 16.99674,-18.60484 17.00351,18.61077 -12.52627,0 0,17.17155 13.45041,0 8.81362,8.99608 -28.37654,0 z m 61.01308,-18.80172 -12.51354,0 0,-23.31291 c 0,-1.57755 -1.2797,-2.86149 -2.85217,-2.86149 l -28.3706,0 8.80768,8.99607 13.44871,0 0,17.17154 -12.51864,0.007 17.00183,18.6074 16.99673,-18.6074 z" />
      <path
         d="m 240.13405,998.28737 c -1.57331,0 -2.85217,-1.28395 -2.85217,-2.8615 l 0,-23.30612 -12.5093,-0.006 16.99674,-18.60484 17.00351,18.61077 -12.52627,0 0,17.17155 13.45041,0 8.81362,8.99608 -28.37654,0 z m 61.01308,-18.80172 -12.51354,0 0,-23.31291 c 0,-1.57755 -1.2797,-2.86149 -2.85217,-2.86149 l -28.3706,0 8.80768,8.99607 13.44871,0 0,17.17154 -12.51864,0.007 17.00183,18.6074 16.99673,-18.6074 z"
         id="path3673"
         inkscape:connector-curvature="0" />
      <path
         inkscape:connector-curvature="0"
         id="path3675"
         d="m 340.13405,998.28737 c -1.57331,0 -2.85217,-1.28395 -2.85217,-2.8615 l 0,-23.30612 -12.5093,-0.006 16.99674,-18.60484 17.00351,18.61077 -12.52627,0 0,17.17155 13.45041,0 8.81362,8.99608 -28.37654,0 z m 61.01308,-18.80172 -12.51354,0 0,-23.31291 c 0,-1.57755 -1.2797,-2.86149 -2.85217,-2.86149 l -28.3706,0 8.80768,8.99607 13.44871,0 0,17.17154 -12.51864,0.007 17.00183,18.6074 16.99673,-18.6074 z" />
      <path
         d="m 440.13405,998.28737 c -1.57331,0 -2.85217,-1.28395 -2.85217,-2.8615 l 0,-23.30612 -12.5093,-0.006 16.99674,-18.60484 17.00351,18.61077 -12.52627,0 0,17.17155 13.45041,0 8.81362,8.99608 -28.37654,0 z m 61.01308,-18.80172 -12.51354,0 0,-23.31291 c 0,-1.57755 -1.2797,-2.86149 -2.85217,-2.86149 l -28.3706,0 8.80768,8.99607 13.44871,0 0,17.17154 -12.51864,0.007 17.00183,18.6074 16.99673,-18.6074 z"
         id="path3677"
         inkscape:connector-curvature="0" />
      <path
         inkscape:connector-curvature="0"
         id="path3679"
         d="m 540.13405,998.28737 c -1.57331,0 -2.85217,-1.28395 -2.85217,-2.8615 l 0,-23.30612 -12.5093,-0.006 16.99674,-18.60484 17.00351,18.61077 -12.52627,0 0,17.17155 13.45041,0 8.81362,8.99608 -28.37654,0 z m 61.01308,-18.80172 -12.51354,0 0,-23.31291 c 0,-1.57755 -1.2797,-2.86149 -2.85217,-2.86149 l -28.3706,0 8.80768,8.99607 13.44871,0 0,17.17154 -12.51864,0.007 17.00183,18.6074 16.99673,-18.6074 z" />
      <path
         d="m 640.13405,998.28737 c -1.57331,0 -2.85217,-1.28395 -2.85217,-2.8615 l 0,-23.30612 -12.5093,-0.006 16.99674,-18.60484 17.00351,18.61077 -12.52627,0 0,17.17155 13.45041,0 8.81362,8.99608 -28.37654,0 z m 61.01308,-18.80172 -12.51354,0 0,-23.31291 c 0,-1.57755 -1.2797,-2.86149 -2.85217,-2.86149 l -28.3706,0 8.80768,8.99607 13.44871,0 0,17.17154 -12.51864,0.007 17.00183,18.6074 16.99673,-18.6074 z"
         id="path3681"
         inkscape:connector-curvature="0" />
    </g>
    <text
       id="text3734"
       font-weight="bold"
       font-size="5.0"
       y="1036.1373"
       x="28.944267"
       style="font-weight:bold;font-size:10.99451065px;font-family:'Helvetica Neue', Helvetica, Arial-Unicode, Arial, Sans-serif;fill:#000000" />
    <text
       id="text3736"
       font-weight="bold"
       font-size="5.0"
       y="1026.1373"
       x="149.78123"
       style="font-style:normal;font-variant:normal;font-weight:bold;font-stretch:normal;font-size:10.99449992px;line-height:125%;font-family:'Liberation Sans';-inkscape-font-specification:'Liberation Sans, Bold';text-align:center;writing-mode:lr;text-anchor:middle;fill:#000000;"
       sodipodi:linespacing="125%">
      <tspan
         sodipodi:role="line"
         id="tspan3738"
         x="149.78123"
         y="1026.1373">Tweetrospective Print Sheet, created by</tspan>
      <tspan
         sodipodi:role="line"
         id="tspan3740"
         x="149.78123"
         y="1039.8805">Ham Vocke - www.hamvocke.com</tspan>
    </text>
  </g>
</svg>
