<?xml version="1.0" encoding="UTF-8" standalone="no"?>
<!-- Created with Inkscape (http://www.inkscape.org/) -->

<svg
   xmlns:dc="http://purl.org/dc/elements/1.1/"
   xmlns:cc="http://creativecommons.org/ns#"
   xmlns:rdf="http://www.w3.org/1999/02/22-rdf-syntax-ns#"
   xmlns:svg="http://www.w3.org/2000/svg"
   xmlns="http://www.w3.org/2000/svg"
   xmlns:sodipodi="http://sodipodi.sourceforge.net/DTD/sodipodi-0.dtd"
   xmlns:inkscape="http://www.inkscape.org/namespaces/inkscape"
   width="64"
   height="64"
   viewBox="0 0 16.933333 16.933334"
   version="1.1"
   id="svg41186"
   sodipodi:docname="logo.svg"
   inkscape:version="0.92.2 5c3e80d, 2017-08-06"
   inkscape:export-filename="/home/ham/dev/hamvocke/assets/img/ham_logo64.png"
   inkscape:export-xdpi="96"
   inkscape:export-ydpi="96">
  <defs
     id="defs41180" />
  <sodipodi:namedview
     id="base"
     pagecolor="#ffffff"
     bordercolor="#666666"
     borderopacity="1.0"
     inkscape:pageopacity="0.0"
     inkscape:pageshadow="2"
     inkscape:zoom="4"
     inkscape:cx="24.50424"
     inkscape:cy="33.394095"
     inkscape:document-units="mm"
     inkscape:current-layer="layer1"
     showgrid="false"
     inkscape:window-width="1898"
     inkscape:window-height="1030"
     inkscape:window-x="10"
     inkscape:window-y="38"
     inkscape:window-maximized="0"
     units="px" />
  <metadata
     id="metadata41183">
    <rdf:RDF>
      <cc:Work
         rdf:about="">
        <dc:format>image/svg+xml</dc:format>
        <dc:type
           rdf:resource="http://purl.org/dc/dcmitype/StillImage" />
        <dc:title></dc:title>
      </cc:Work>
    </rdf:RDF>
  </metadata>
  <g
     inkscape:label="Layer 1"
     inkscape:groupmode="layer"
     id="layer1"
     transform="translate(0,-280.06665)">
    <g
       id="g994">
      <path
         inkscape:connector-curvature="0"
         id="path932"
         d="m 12.991802,281.01185 a 1.2766737,1.2771265 1.703036 0 0 -0.05373,1.80526 1.2766737,1.2771265 1.703036 0 0 0.0089,0.007 l -2.222551,2.09495 1.303531,1.38413 2.22429,-2.09658 a 1.2766737,1.2771265 1.703036 0 0 0.04298,0.0492 1.2766737,1.2771265 1.703036 0 0 1.804627,0.0536 1.2766737,1.2771265 1.703036 0 0 0.05373,-1.80529 1.2766737,1.2771265 1.703036 0 0 -1.020357,-0.3972 1.2766737,1.2771265 1.703036 0 0 -0.335749,-1.0425 1.2766737,1.2771265 1.703036 0 0 -1.80464,-0.0536 z"
         style="opacity:1;fill:#ffffff;fill-opacity:1;stroke:#000000;stroke-width:0.49849632;stroke-linecap:round;stroke-linejoin:round;stroke-miterlimit:4;stroke-dasharray:none;stroke-dashoffset:0;stroke-opacity:1" />
      <path
         inkscape:connector-curvature="0"
         id="path934"
         d="m 2.6231904,286.95508 c -0.9694774,0.90119 -1.5398913,1.66323 -1.5398913,1.66323 l 3.4766718,3.62864 3.4142781,3.68728 c 0,0 3.757519,-2.36819 4.512594,-6.24573 0.670543,-3.44345 -0.301548,-4.27119 -0.486699,-4.45285 -0.169983,-0.19551 -0.93852,-1.21628 -4.4150986,-0.75121 -2.2017271,0.29455 -3.7154279,1.312 -4.9618856,2.47065 z"
         style="fill:#ffffff;fill-opacity:1;fill-rule:evenodd;stroke:#000000;stroke-width:0.45580405;stroke-linecap:butt;stroke-linejoin:miter;stroke-miterlimit:4;stroke-dasharray:none;stroke-opacity:1"
         sodipodi:nodetypes="ccccscscc" />
      <ellipse
         transform="matrix(0.72768749,-0.68590883,0.68565074,0.72793067,0,0)"
         ry="5.0292091"
         rx="2.9915128"
         cy="215.80371"
         cx="-196.97281"
         id="ellipse936"
         style="opacity:1;fill:#ffffff;fill-opacity:1;stroke:#000000;stroke-width:0.45580405;stroke-linecap:round;stroke-linejoin:round;stroke-miterlimit:4;stroke-dasharray:none;stroke-dashoffset:0;stroke-opacity:1" />
      <ellipse
         transform="matrix(0.72768749,-0.68590883,0.68565074,0.72793067,0,0)"
         style="opacity:1;fill:#ffffff;fill-opacity:1;stroke:#000000;stroke-width:0.45580405;stroke-linecap:round;stroke-linejoin:round;stroke-miterlimit:4;stroke-dasharray:none;stroke-dashoffset:0;stroke-opacity:1"
         id="ellipse938"
         cx="-196.97281"
         cy="215.80371"
         rx="1.7845229"
         ry="3.4891298" />
      <ellipse
         ry="0.43790999"
         rx="0.25574517"
         cy="214.94136"
         cx="-197.03667"
         id="ellipse940"
         style="opacity:1;fill:#000000;fill-opacity:1;stroke:#000000;stroke-width:0.45580405;stroke-linecap:round;stroke-linejoin:round;stroke-miterlimit:4;stroke-dasharray:none;stroke-dashoffset:0;stroke-opacity:1"
         transform="matrix(0.72768749,-0.68590883,0.68565074,0.72793067,0,0)" />
      <path
         inkscape:connector-curvature="0"
         id="path942"
         d="m 9.6470865,292.50089 c 0.8751365,-0.99571 1.2743595,-1.70384 1.4493835,-2.8078"
         style="fill:none;fill-rule:evenodd;stroke:#000000;stroke-width:0.45580405;stroke-linecap:round;stroke-linejoin:miter;stroke-miterlimit:4;stroke-dasharray:none;stroke-opacity:1"
         sodipodi:nodetypes="cc" />
      <path
         style="fill:none;fill-rule:evenodd;stroke:#000000;stroke-width:0.45580405;stroke-linecap:round;stroke-linejoin:miter;stroke-miterlimit:4;stroke-dasharray:none;stroke-opacity:1"
         d="m 11.299952,288.64369 c 0.374658,-1.29938 -0.0093,-2.1623 -0.0093,-2.1623"
         id="path944"
         inkscape:connector-curvature="0"
         sodipodi:nodetypes="cc" />
    </g>
  </g>
</svg>
