<svg version="1" xmlns="http://www.w3.org/2000/svg" width="682.667" height="682.667" viewBox="0 0 512.000000 512.000000"><path d="M404.7 13c-16.5 5.9-27.9 19.3-30.9 36.7-1.5 8.8-.1 17.9 4.1 26.8l3 6.4-24.5 23.2-24.4 23.1-10.3-2.1c-16.6-3.3-32.4-4.4-52.2-3.7-61.3 2.1-106.8 15.6-150.1 44.5-23.1 15.4-44 33.2-65.8 56.2-25.7 27-36 41.8-40.8 58.6-3 10.4-3.2 35.3-.4 48.3 8.1 37.8 30.5 76.2 63.5 109 38.4 38.2 83.2 60.1 123 60.1 22.4 0 32.3-3.8 55.8-21.4 20.4-15.4 31.1-24.7 48.3-42.3 59-60.4 85.8-122 87.7-201.9.6-23.6-.3-34.3-3.9-47.8-1.1-4.3-1.9-7.9-1.7-8.1.2-.1 9-8.3 19.4-18.1 10.5-9.8 20.6-19.4 22.6-21.3l3.6-3.3 4.9 3.1c18.4 11.7 43.6 8.5 58.2-7.4 8.3-9 12.2-19.1 12.2-31.8 0-22.6-14.8-40-38.2-45.2-2.3-.5-2.8-1.2-2.8-3.5 0-3.6-3.3-13.3-6.4-18.5-3.7-6.3-12.8-14.3-20.3-17.9-6.1-2.8-7.9-3.2-17.3-3.4-8.6-.3-11.6 0-16.3 1.7zM432 28.6c11.5 5.3 16.9 13.7 17.9 27.6.8 11.2 1.8 12.4 11 13 13 1 24 8.7 28.2 19.8 1.7 4.3 2 7.1 1.7 13-.7 11.7-5.9 20-16 25.6-4.8 2.6-6.2 2.9-14.3 2.9-10.2 0-14.7-1.7-22.2-8.6-7.6-7-7.3-7.2-35.3 19.2l-24.4 23.1-2.5-3.3c-4.6-6.3-18.6-19.5-23.8-22.5l-5.2-2.9 25-23.5c13.8-12.9 25.5-24.3 26-25.2 1.6-2.9 1-5.1-3-10.8-10.1-14.4-8.8-30.7 3.5-41.9 6.5-5.9 11.6-7.9 20.9-8 5.5-.1 8.2.5 12.5 2.5zM313.5 139.5c20.3 3.7 32.7 9.6 43.2 20.5 10.7 10.9 15.6 21.2 18.7 39 4.2 23.8 2.5 54.9-5 92-7.6 37.2-27 76.4-55.2 111.5-9.6 11.9-35.9 39.1-43.9 45.3l-4.2 3.3 1.2-3.8c1.9-6.3 1.5-35.3-.7-45.2-4-18.7-12.3-39.1-23.5-58-32.3-54.5-87.9-97.8-139.6-108.6-10-2.1-28.1-3-35.7-1.7l-5.7.9 3-3.6c5.6-6.5 30.2-29 40.8-37.4 24.6-19.3 51.2-33.9 77.9-42.7 20.8-6.9 37.1-9.9 70.7-13.4 9.9-1 49.3.3 58 1.9zm-206 110.8c17 4.7 30.7 10.9 47.6 21.3 48.8 30.2 90 86.3 99.3 135.4 3.5 18.2 1.5 39.4-5 52.1-6.1 12.1-19.9 22.5-34.4 26-7.5 1.8-26.6 1.6-36.3-.5-25-5.4-54.2-20.4-77.2-39.8-27.2-22.9-48.6-50-62.6-79.3C28.7 344.1 24 325.6 24 306.8c0-19.7 4.8-33.6 15.5-44.3 7-7.1 13.6-10.8 23.7-13.5 10.4-2.9 31.5-2.2 44.3 1.3z"/><path d="M337.2 188.6c-2.8 1.9-2.8 4.8-.1 15 3 11.2 3 31 .1 45.1-1.2 5.5-2.2 10.8-2.2 11.7 0 2.5 3.7 5.6 6.8 5.6 3.4 0 5.5-2.2 7-7 5.8-18.8 5.6-51.1-.5-66.2-2.3-5.7-6.6-7.4-11.1-4.2zM332.4 285c-2.5 1-3 2-5 11.8-5.1 24.6-15.5 44.5-35.6 68.4-7.7 9.1-8.6 12.3-4.2 15.7 4 3.1 6.3 2.6 11.1-2.7 14.1-15 29.7-39.3 35.9-55.7 3.2-8.8 7.4-25.9 7.4-30.8 0-6.1-4.1-8.9-9.6-6.7zM78.5 276.3c-18 6-27.5 19.9-27.5 40.3 0 49.3 54.2 116.7 110 136.9 19.7 7.1 35.1 7.2 48.3.2 23-12.1 26.1-43.5 8.1-81.4-2.4-5-7.9-14.5-12.3-21-23.1-34.4-57.5-62.2-90.1-72.8-6.9-2.3-10.8-2.8-20.5-3.1-8.2-.3-13.3 0-16 .9zm29 14.3c9.9 2.4 30.8 13.4 42.5 22.2 11.9 9 29.7 26.9 38.4 38.5 12 16.1 21.6 35.3 25.1 50 2 8.3 1.9 22.1-.1 28-6.3 18.6-30.7 20.7-61.2 5.3-36.2-18.3-70.4-57.3-83.5-94.9-2.9-8.4-3.1-10.3-3.2-21.7 0-11.5.2-12.8 2.5-16.9 6.7-11.8 19.8-15.3 39.5-10.5z"/><path d="M110.3 332.5c-9.3 4-9.2 16.2.1 26.3 6.8 7.4 14.4 9.8 21 6.7 12.5-5.9 5.9-27.4-10.1-33.1-4.8-1.7-7-1.7-11 .1z"/></svg>